<mxfile host="65bd71144e">
    <diagram id="Mn2vSG3f7uKOJZbTL1zt" name="Page-2">
        <mxGraphModel dx="607" dy="478" grid="1" gridSize="10" guides="1" tooltips="1" connect="1" arrows="1" fold="1" page="1" pageScale="1" pageWidth="1200" pageHeight="1920" math="0" shadow="0">
            <root>
                <mxCell id="TchkiXIJ95gt_sCCpnTl-0"/>
                <mxCell id="TchkiXIJ95gt_sCCpnTl-1" parent="TchkiXIJ95gt_sCCpnTl-0"/>
                <mxCell id="OusGNvMnw1ku1Nts1Jbt-0" value="users" style="shape=table;startSize=30;container=1;collapsible=1;childLayout=tableLayout;fixedRows=1;rowLines=0;fontStyle=1;align=center;resizeLast=1;" parent="TchkiXIJ95gt_sCCpnTl-1" vertex="1">
                    <mxGeometry x="427" y="350" width="140" height="400" as="geometry"/>
                </mxCell>
                <mxCell id="OusGNvMnw1ku1Nts1Jbt-1" value="" style="shape=partialRectangle;collapsible=0;dropTarget=0;pointerEvents=0;fillColor=none;top=0;left=0;bottom=1;right=0;points=[[0,0.5],[1,0.5]];portConstraint=eastwest;" parent="OusGNvMnw1ku1Nts1Jbt-0" vertex="1">
                    <mxGeometry y="30" width="140" height="30" as="geometry"/>
                </mxCell>
                <mxCell id="OusGNvMnw1ku1Nts1Jbt-2" value="PK" style="shape=partialRectangle;connectable=0;fillColor=none;top=0;left=0;bottom=0;right=0;fontStyle=1;overflow=hidden;" parent="OusGNvMnw1ku1Nts1Jbt-1" vertex="1">
                    <mxGeometry width="30" height="30" as="geometry"/>
                </mxCell>
                <mxCell id="OusGNvMnw1ku1Nts1Jbt-3" value="id" style="shape=partialRectangle;connectable=0;fillColor=none;top=0;left=0;bottom=0;right=0;align=left;spacingLeft=6;fontStyle=5;overflow=hidden;" parent="OusGNvMnw1ku1Nts1Jbt-1" vertex="1">
                    <mxGeometry x="30" width="110" height="30" as="geometry"/>
                </mxCell>
                <mxCell id="OusGNvMnw1ku1Nts1Jbt-4" value="" style="shape=partialRectangle;collapsible=0;dropTarget=0;pointerEvents=0;fillColor=none;top=0;left=0;bottom=0;right=0;points=[[0,0.5],[1,0.5]];portConstraint=eastwest;" parent="OusGNvMnw1ku1Nts1Jbt-0" vertex="1">
                    <mxGeometry y="60" width="140" height="20" as="geometry"/>
                </mxCell>
                <mxCell id="OusGNvMnw1ku1Nts1Jbt-5" value="" style="shape=partialRectangle;connectable=0;fillColor=none;top=0;left=0;bottom=0;right=0;editable=1;overflow=hidden;" parent="OusGNvMnw1ku1Nts1Jbt-4" vertex="1">
                    <mxGeometry width="30" height="20" as="geometry"/>
                </mxCell>
                <mxCell id="OusGNvMnw1ku1Nts1Jbt-6" value="first_name" style="shape=partialRectangle;connectable=0;fillColor=none;top=0;left=0;bottom=0;right=0;align=left;spacingLeft=6;overflow=hidden;" parent="OusGNvMnw1ku1Nts1Jbt-4" vertex="1">
                    <mxGeometry x="30" width="110" height="20" as="geometry"/>
                </mxCell>
                <mxCell id="OusGNvMnw1ku1Nts1Jbt-7" value="" style="shape=partialRectangle;collapsible=0;dropTarget=0;pointerEvents=0;fillColor=none;top=0;left=0;bottom=0;right=0;points=[[0,0.5],[1,0.5]];portConstraint=eastwest;" parent="OusGNvMnw1ku1Nts1Jbt-0" vertex="1">
                    <mxGeometry y="80" width="140" height="20" as="geometry"/>
                </mxCell>
                <mxCell id="OusGNvMnw1ku1Nts1Jbt-8" value="" style="shape=partialRectangle;connectable=0;fillColor=none;top=0;left=0;bottom=0;right=0;editable=1;overflow=hidden;" parent="OusGNvMnw1ku1Nts1Jbt-7" vertex="1">
                    <mxGeometry width="30" height="20" as="geometry"/>
                </mxCell>
                <mxCell id="OusGNvMnw1ku1Nts1Jbt-9" value="middle_name" style="shape=partialRectangle;connectable=0;fillColor=none;top=0;left=0;bottom=0;right=0;align=left;spacingLeft=6;overflow=hidden;" parent="OusGNvMnw1ku1Nts1Jbt-7" vertex="1">
                    <mxGeometry x="30" width="110" height="20" as="geometry"/>
                </mxCell>
                <mxCell id="OusGNvMnw1ku1Nts1Jbt-10" value="" style="shape=partialRectangle;collapsible=0;dropTarget=0;pointerEvents=0;fillColor=none;top=0;left=0;bottom=0;right=0;points=[[0,0.5],[1,0.5]];portConstraint=eastwest;" parent="OusGNvMnw1ku1Nts1Jbt-0" vertex="1">
                    <mxGeometry y="100" width="140" height="20" as="geometry"/>
                </mxCell>
                <mxCell id="OusGNvMnw1ku1Nts1Jbt-11" value="" style="shape=partialRectangle;connectable=0;fillColor=none;top=0;left=0;bottom=0;right=0;editable=1;overflow=hidden;" parent="OusGNvMnw1ku1Nts1Jbt-10" vertex="1">
                    <mxGeometry width="30" height="20" as="geometry"/>
                </mxCell>
                <mxCell id="OusGNvMnw1ku1Nts1Jbt-12" value="last_name" style="shape=partialRectangle;connectable=0;fillColor=none;top=0;left=0;bottom=0;right=0;align=left;spacingLeft=6;overflow=hidden;" parent="OusGNvMnw1ku1Nts1Jbt-10" vertex="1">
                    <mxGeometry x="30" width="110" height="20" as="geometry"/>
                </mxCell>
                <mxCell id="OusGNvMnw1ku1Nts1Jbt-13" value="" style="shape=partialRectangle;collapsible=0;dropTarget=0;pointerEvents=0;fillColor=none;top=0;left=0;bottom=0;right=0;points=[[0,0.5],[1,0.5]];portConstraint=eastwest;" parent="OusGNvMnw1ku1Nts1Jbt-0" vertex="1">
                    <mxGeometry y="120" width="140" height="20" as="geometry"/>
                </mxCell>
                <mxCell id="OusGNvMnw1ku1Nts1Jbt-14" value="" style="shape=partialRectangle;connectable=0;fillColor=none;top=0;left=0;bottom=0;right=0;editable=1;overflow=hidden;" parent="OusGNvMnw1ku1Nts1Jbt-13" vertex="1">
                    <mxGeometry width="30" height="20" as="geometry"/>
                </mxCell>
                <mxCell id="OusGNvMnw1ku1Nts1Jbt-15" value="username" style="shape=partialRectangle;connectable=0;fillColor=none;top=0;left=0;bottom=0;right=0;align=left;spacingLeft=6;overflow=hidden;" parent="OusGNvMnw1ku1Nts1Jbt-13" vertex="1">
                    <mxGeometry x="30" width="110" height="20" as="geometry"/>
                </mxCell>
                <mxCell id="OusGNvMnw1ku1Nts1Jbt-16" value="" style="shape=partialRectangle;collapsible=0;dropTarget=0;pointerEvents=0;fillColor=none;top=0;left=0;bottom=0;right=0;points=[[0,0.5],[1,0.5]];portConstraint=eastwest;" parent="OusGNvMnw1ku1Nts1Jbt-0" vertex="1">
                    <mxGeometry y="140" width="140" height="20" as="geometry"/>
                </mxCell>
                <mxCell id="OusGNvMnw1ku1Nts1Jbt-17" value="" style="shape=partialRectangle;connectable=0;fillColor=none;top=0;left=0;bottom=0;right=0;editable=1;overflow=hidden;" parent="OusGNvMnw1ku1Nts1Jbt-16" vertex="1">
                    <mxGeometry width="30" height="20" as="geometry"/>
                </mxCell>
                <mxCell id="OusGNvMnw1ku1Nts1Jbt-18" value="password" style="shape=partialRectangle;connectable=0;fillColor=none;top=0;left=0;bottom=0;right=0;align=left;spacingLeft=6;overflow=hidden;" parent="OusGNvMnw1ku1Nts1Jbt-16" vertex="1">
                    <mxGeometry x="30" width="110" height="20" as="geometry"/>
                </mxCell>
                <mxCell id="OusGNvMnw1ku1Nts1Jbt-19" value="" style="shape=partialRectangle;collapsible=0;dropTarget=0;pointerEvents=0;fillColor=none;top=0;left=0;bottom=0;right=0;points=[[0,0.5],[1,0.5]];portConstraint=eastwest;" parent="OusGNvMnw1ku1Nts1Jbt-0" vertex="1">
                    <mxGeometry y="160" width="140" height="20" as="geometry"/>
                </mxCell>
                <mxCell id="OusGNvMnw1ku1Nts1Jbt-20" value="" style="shape=partialRectangle;connectable=0;fillColor=none;top=0;left=0;bottom=0;right=0;editable=1;overflow=hidden;" parent="OusGNvMnw1ku1Nts1Jbt-19" vertex="1">
                    <mxGeometry width="30" height="20" as="geometry"/>
                </mxCell>
                <mxCell id="OusGNvMnw1ku1Nts1Jbt-21" value="email" style="shape=partialRectangle;connectable=0;fillColor=none;top=0;left=0;bottom=0;right=0;align=left;spacingLeft=6;overflow=hidden;" parent="OusGNvMnw1ku1Nts1Jbt-19" vertex="1">
                    <mxGeometry x="30" width="110" height="20" as="geometry"/>
                </mxCell>
                <mxCell id="OusGNvMnw1ku1Nts1Jbt-22" value="" style="shape=partialRectangle;collapsible=0;dropTarget=0;pointerEvents=0;fillColor=none;top=0;left=0;bottom=0;right=0;points=[[0,0.5],[1,0.5]];portConstraint=eastwest;" parent="OusGNvMnw1ku1Nts1Jbt-0" vertex="1">
                    <mxGeometry y="180" width="140" height="20" as="geometry"/>
                </mxCell>
                <mxCell id="OusGNvMnw1ku1Nts1Jbt-23" value="" style="shape=partialRectangle;connectable=0;fillColor=none;top=0;left=0;bottom=0;right=0;editable=1;overflow=hidden;" parent="OusGNvMnw1ku1Nts1Jbt-22" vertex="1">
                    <mxGeometry width="30" height="20" as="geometry"/>
                </mxCell>
                <mxCell id="OusGNvMnw1ku1Nts1Jbt-24" value="gender" style="shape=partialRectangle;connectable=0;fillColor=none;top=0;left=0;bottom=0;right=0;align=left;spacingLeft=6;overflow=hidden;" parent="OusGNvMnw1ku1Nts1Jbt-22" vertex="1">
                    <mxGeometry x="30" width="110" height="20" as="geometry"/>
                </mxCell>
                <mxCell id="OusGNvMnw1ku1Nts1Jbt-25" value="" style="shape=partialRectangle;collapsible=0;dropTarget=0;pointerEvents=0;fillColor=none;top=0;left=0;bottom=0;right=0;points=[[0,0.5],[1,0.5]];portConstraint=eastwest;" parent="OusGNvMnw1ku1Nts1Jbt-0" vertex="1">
                    <mxGeometry y="200" width="140" height="20" as="geometry"/>
                </mxCell>
                <mxCell id="OusGNvMnw1ku1Nts1Jbt-26" value="" style="shape=partialRectangle;connectable=0;fillColor=none;top=0;left=0;bottom=0;right=0;editable=1;overflow=hidden;" parent="OusGNvMnw1ku1Nts1Jbt-25" vertex="1">
                    <mxGeometry width="30" height="20" as="geometry"/>
                </mxCell>
                <mxCell id="OusGNvMnw1ku1Nts1Jbt-27" value="profile_pic" style="shape=partialRectangle;connectable=0;fillColor=none;top=0;left=0;bottom=0;right=0;align=left;spacingLeft=6;overflow=hidden;" parent="OusGNvMnw1ku1Nts1Jbt-25" vertex="1">
                    <mxGeometry x="30" width="110" height="20" as="geometry"/>
                </mxCell>
                <mxCell id="OusGNvMnw1ku1Nts1Jbt-28" value="" style="shape=partialRectangle;collapsible=0;dropTarget=0;pointerEvents=0;fillColor=none;top=0;left=0;bottom=0;right=0;points=[[0,0.5],[1,0.5]];portConstraint=eastwest;" parent="OusGNvMnw1ku1Nts1Jbt-0" vertex="1">
                    <mxGeometry y="220" width="140" height="20" as="geometry"/>
                </mxCell>
                <mxCell id="OusGNvMnw1ku1Nts1Jbt-29" value="" style="shape=partialRectangle;connectable=0;fillColor=none;top=0;left=0;bottom=0;right=0;editable=1;overflow=hidden;" parent="OusGNvMnw1ku1Nts1Jbt-28" vertex="1">
                    <mxGeometry width="30" height="20" as="geometry"/>
                </mxCell>
                <mxCell id="OusGNvMnw1ku1Nts1Jbt-30" value="birthdate" style="shape=partialRectangle;connectable=0;fillColor=none;top=0;left=0;bottom=0;right=0;align=left;spacingLeft=6;overflow=hidden;" parent="OusGNvMnw1ku1Nts1Jbt-28" vertex="1">
                    <mxGeometry x="30" width="110" height="20" as="geometry"/>
                </mxCell>
                <mxCell id="OusGNvMnw1ku1Nts1Jbt-31" value="" style="shape=partialRectangle;collapsible=0;dropTarget=0;pointerEvents=0;fillColor=none;top=0;left=0;bottom=0;right=0;points=[[0,0.5],[1,0.5]];portConstraint=eastwest;" parent="OusGNvMnw1ku1Nts1Jbt-0" vertex="1">
                    <mxGeometry y="240" width="140" height="20" as="geometry"/>
                </mxCell>
                <mxCell id="OusGNvMnw1ku1Nts1Jbt-32" value="" style="shape=partialRectangle;connectable=0;fillColor=none;top=0;left=0;bottom=0;right=0;editable=1;overflow=hidden;" parent="OusGNvMnw1ku1Nts1Jbt-31" vertex="1">
                    <mxGeometry width="30" height="20" as="geometry"/>
                </mxCell>
                <mxCell id="OusGNvMnw1ku1Nts1Jbt-33" value="contact_number" style="shape=partialRectangle;connectable=0;fillColor=none;top=0;left=0;bottom=0;right=0;align=left;spacingLeft=6;overflow=hidden;" parent="OusGNvMnw1ku1Nts1Jbt-31" vertex="1">
                    <mxGeometry x="30" width="110" height="20" as="geometry"/>
                </mxCell>
                <mxCell id="OusGNvMnw1ku1Nts1Jbt-34" value="" style="shape=partialRectangle;collapsible=0;dropTarget=0;pointerEvents=0;fillColor=none;top=0;left=0;bottom=0;right=0;points=[[0,0.5],[1,0.5]];portConstraint=eastwest;" parent="OusGNvMnw1ku1Nts1Jbt-0" vertex="1">
                    <mxGeometry y="260" width="140" height="20" as="geometry"/>
                </mxCell>
                <mxCell id="OusGNvMnw1ku1Nts1Jbt-35" value="" style="shape=partialRectangle;connectable=0;fillColor=none;top=0;left=0;bottom=0;right=0;editable=1;overflow=hidden;" parent="OusGNvMnw1ku1Nts1Jbt-34" vertex="1">
                    <mxGeometry width="30" height="20" as="geometry"/>
                </mxCell>
                <mxCell id="OusGNvMnw1ku1Nts1Jbt-36" value="email_code" style="shape=partialRectangle;connectable=0;fillColor=none;top=0;left=0;bottom=0;right=0;align=left;spacingLeft=6;overflow=hidden;" parent="OusGNvMnw1ku1Nts1Jbt-34" vertex="1">
                    <mxGeometry x="30" width="110" height="20" as="geometry"/>
                </mxCell>
                <mxCell id="OusGNvMnw1ku1Nts1Jbt-37" value="" style="shape=partialRectangle;collapsible=0;dropTarget=0;pointerEvents=0;fillColor=none;top=0;left=0;bottom=0;right=0;points=[[0,0.5],[1,0.5]];portConstraint=eastwest;" parent="OusGNvMnw1ku1Nts1Jbt-0" vertex="1">
                    <mxGeometry y="280" width="140" height="20" as="geometry"/>
                </mxCell>
                <mxCell id="OusGNvMnw1ku1Nts1Jbt-38" value="FK" style="shape=partialRectangle;connectable=0;fillColor=none;top=0;left=0;bottom=0;right=0;editable=1;overflow=hidden;fontStyle=1" parent="OusGNvMnw1ku1Nts1Jbt-37" vertex="1">
                    <mxGeometry width="30" height="20" as="geometry"/>
                </mxCell>
                <mxCell id="OusGNvMnw1ku1Nts1Jbt-39" value="role" style="shape=partialRectangle;connectable=0;fillColor=none;top=0;left=0;bottom=0;right=0;align=left;spacingLeft=6;overflow=hidden;" parent="OusGNvMnw1ku1Nts1Jbt-37" vertex="1">
                    <mxGeometry x="30" width="110" height="20" as="geometry"/>
                </mxCell>
                <mxCell id="OusGNvMnw1ku1Nts1Jbt-40" value="" style="shape=partialRectangle;collapsible=0;dropTarget=0;pointerEvents=0;fillColor=none;top=0;left=0;bottom=0;right=0;points=[[0,0.5],[1,0.5]];portConstraint=eastwest;" parent="OusGNvMnw1ku1Nts1Jbt-0" vertex="1">
                    <mxGeometry y="300" width="140" height="20" as="geometry"/>
                </mxCell>
                <mxCell id="OusGNvMnw1ku1Nts1Jbt-41" value="" style="shape=partialRectangle;connectable=0;fillColor=none;top=0;left=0;bottom=0;right=0;editable=1;overflow=hidden;" parent="OusGNvMnw1ku1Nts1Jbt-40" vertex="1">
                    <mxGeometry width="30" height="20" as="geometry"/>
                </mxCell>
                <mxCell id="OusGNvMnw1ku1Nts1Jbt-42" value="status" style="shape=partialRectangle;connectable=0;fillColor=none;top=0;left=0;bottom=0;right=0;align=left;spacingLeft=6;overflow=hidden;" parent="OusGNvMnw1ku1Nts1Jbt-40" vertex="1">
                    <mxGeometry x="30" width="110" height="20" as="geometry"/>
                </mxCell>
                <mxCell id="OusGNvMnw1ku1Nts1Jbt-43" value="" style="shape=partialRectangle;collapsible=0;dropTarget=0;pointerEvents=0;fillColor=none;top=0;left=0;bottom=0;right=0;points=[[0,0.5],[1,0.5]];portConstraint=eastwest;" parent="OusGNvMnw1ku1Nts1Jbt-0" vertex="1">
                    <mxGeometry y="320" width="140" height="20" as="geometry"/>
                </mxCell>
                <mxCell id="OusGNvMnw1ku1Nts1Jbt-44" value="" style="shape=partialRectangle;connectable=0;fillColor=none;top=0;left=0;bottom=0;right=0;editable=1;overflow=hidden;" parent="OusGNvMnw1ku1Nts1Jbt-43" vertex="1">
                    <mxGeometry width="30" height="20" as="geometry"/>
                </mxCell>
                <mxCell id="OusGNvMnw1ku1Nts1Jbt-45" value="email_code" style="shape=partialRectangle;connectable=0;fillColor=none;top=0;left=0;bottom=0;right=0;align=left;spacingLeft=6;overflow=hidden;" parent="OusGNvMnw1ku1Nts1Jbt-43" vertex="1">
                    <mxGeometry x="30" width="110" height="20" as="geometry"/>
                </mxCell>
                <mxCell id="OusGNvMnw1ku1Nts1Jbt-46" value="" style="shape=partialRectangle;collapsible=0;dropTarget=0;pointerEvents=0;fillColor=none;top=0;left=0;bottom=0;right=0;points=[[0,0.5],[1,0.5]];portConstraint=eastwest;" parent="OusGNvMnw1ku1Nts1Jbt-0" vertex="1">
                    <mxGeometry y="340" width="140" height="20" as="geometry"/>
                </mxCell>
                <mxCell id="OusGNvMnw1ku1Nts1Jbt-47" value="" style="shape=partialRectangle;connectable=0;fillColor=none;top=0;left=0;bottom=0;right=0;editable=1;overflow=hidden;" parent="OusGNvMnw1ku1Nts1Jbt-46" vertex="1">
                    <mxGeometry width="30" height="20" as="geometry"/>
                </mxCell>
                <mxCell id="OusGNvMnw1ku1Nts1Jbt-48" value="created_at" style="shape=partialRectangle;connectable=0;fillColor=none;top=0;left=0;bottom=0;right=0;align=left;spacingLeft=6;overflow=hidden;" parent="OusGNvMnw1ku1Nts1Jbt-46" vertex="1">
                    <mxGeometry x="30" width="110" height="20" as="geometry"/>
                </mxCell>
                <mxCell id="OusGNvMnw1ku1Nts1Jbt-49" value="" style="shape=partialRectangle;collapsible=0;dropTarget=0;pointerEvents=0;fillColor=none;top=0;left=0;bottom=0;right=0;points=[[0,0.5],[1,0.5]];portConstraint=eastwest;" parent="OusGNvMnw1ku1Nts1Jbt-0" vertex="1">
                    <mxGeometry y="360" width="140" height="20" as="geometry"/>
                </mxCell>
                <mxCell id="OusGNvMnw1ku1Nts1Jbt-50" value="" style="shape=partialRectangle;connectable=0;fillColor=none;top=0;left=0;bottom=0;right=0;editable=1;overflow=hidden;" parent="OusGNvMnw1ku1Nts1Jbt-49" vertex="1">
                    <mxGeometry width="30" height="20" as="geometry"/>
                </mxCell>
                <mxCell id="OusGNvMnw1ku1Nts1Jbt-51" value="updated_at" style="shape=partialRectangle;connectable=0;fillColor=none;top=0;left=0;bottom=0;right=0;align=left;spacingLeft=6;overflow=hidden;" parent="OusGNvMnw1ku1Nts1Jbt-49" vertex="1">
                    <mxGeometry x="30" width="110" height="20" as="geometry"/>
                </mxCell>
                <mxCell id="OusGNvMnw1ku1Nts1Jbt-52" value="" style="shape=partialRectangle;collapsible=0;dropTarget=0;pointerEvents=0;fillColor=none;top=0;left=0;bottom=0;right=0;points=[[0,0.5],[1,0.5]];portConstraint=eastwest;" parent="OusGNvMnw1ku1Nts1Jbt-0" vertex="1">
                    <mxGeometry y="380" width="140" height="20" as="geometry"/>
                </mxCell>
                <mxCell id="OusGNvMnw1ku1Nts1Jbt-53" value="" style="shape=partialRectangle;connectable=0;fillColor=none;top=0;left=0;bottom=0;right=0;editable=1;overflow=hidden;" parent="OusGNvMnw1ku1Nts1Jbt-52" vertex="1">
                    <mxGeometry width="30" height="20" as="geometry"/>
                </mxCell>
                <mxCell id="OusGNvMnw1ku1Nts1Jbt-54" value="deleted_at" style="shape=partialRectangle;connectable=0;fillColor=none;top=0;left=0;bottom=0;right=0;align=left;spacingLeft=6;overflow=hidden;" parent="OusGNvMnw1ku1Nts1Jbt-52" vertex="1">
                    <mxGeometry x="30" width="110" height="20" as="geometry"/>
                </mxCell>
                <mxCell id="XZS9UM0MvEhPxbXStr33-0" value="logins" style="shape=table;startSize=30;container=1;collapsible=1;childLayout=tableLayout;fixedRows=1;rowLines=0;fontStyle=1;align=center;resizeLast=1;" parent="TchkiXIJ95gt_sCCpnTl-1" vertex="1">
                    <mxGeometry x="617" y="380" width="120" height="120" as="geometry"/>
                </mxCell>
                <mxCell id="XZS9UM0MvEhPxbXStr33-1" value="" style="shape=partialRectangle;collapsible=0;dropTarget=0;pointerEvents=0;fillColor=none;top=0;left=0;bottom=1;right=0;points=[[0,0.5],[1,0.5]];portConstraint=eastwest;" parent="XZS9UM0MvEhPxbXStr33-0" vertex="1">
                    <mxGeometry y="30" width="120" height="30" as="geometry"/>
                </mxCell>
                <mxCell id="XZS9UM0MvEhPxbXStr33-2" value="PK" style="shape=partialRectangle;connectable=0;fillColor=none;top=0;left=0;bottom=0;right=0;fontStyle=1;overflow=hidden;" parent="XZS9UM0MvEhPxbXStr33-1" vertex="1">
                    <mxGeometry width="30" height="30" as="geometry"/>
                </mxCell>
                <mxCell id="XZS9UM0MvEhPxbXStr33-3" value="id" style="shape=partialRectangle;connectable=0;fillColor=none;top=0;left=0;bottom=0;right=0;align=left;spacingLeft=6;fontStyle=5;overflow=hidden;" parent="XZS9UM0MvEhPxbXStr33-1" vertex="1">
                    <mxGeometry x="30" width="90" height="30" as="geometry"/>
                </mxCell>
                <mxCell id="XZS9UM0MvEhPxbXStr33-4" value="" style="shape=partialRectangle;collapsible=0;dropTarget=0;pointerEvents=0;fillColor=none;top=0;left=0;bottom=0;right=0;points=[[0,0.5],[1,0.5]];portConstraint=eastwest;" parent="XZS9UM0MvEhPxbXStr33-0" vertex="1">
                    <mxGeometry y="60" width="120" height="20" as="geometry"/>
                </mxCell>
                <mxCell id="XZS9UM0MvEhPxbXStr33-5" value="FK" style="shape=partialRectangle;connectable=0;fillColor=none;top=0;left=0;bottom=0;right=0;editable=1;overflow=hidden;fontStyle=1" parent="XZS9UM0MvEhPxbXStr33-4" vertex="1">
                    <mxGeometry width="30" height="20" as="geometry"/>
                </mxCell>
                <mxCell id="XZS9UM0MvEhPxbXStr33-6" value="user_id" style="shape=partialRectangle;connectable=0;fillColor=none;top=0;left=0;bottom=0;right=0;align=left;spacingLeft=6;overflow=hidden;" parent="XZS9UM0MvEhPxbXStr33-4" vertex="1">
                    <mxGeometry x="30" width="90" height="20" as="geometry"/>
                </mxCell>
                <mxCell id="XZS9UM0MvEhPxbXStr33-7" value="" style="shape=partialRectangle;collapsible=0;dropTarget=0;pointerEvents=0;fillColor=none;top=0;left=0;bottom=0;right=0;points=[[0,0.5],[1,0.5]];portConstraint=eastwest;" parent="XZS9UM0MvEhPxbXStr33-0" vertex="1">
                    <mxGeometry y="80" width="120" height="20" as="geometry"/>
                </mxCell>
                <mxCell id="XZS9UM0MvEhPxbXStr33-8" value="FK" style="shape=partialRectangle;connectable=0;fillColor=none;top=0;left=0;bottom=0;right=0;editable=1;overflow=hidden;fontStyle=1" parent="XZS9UM0MvEhPxbXStr33-7" vertex="1">
                    <mxGeometry width="30" height="20" as="geometry"/>
                </mxCell>
                <mxCell id="XZS9UM0MvEhPxbXStr33-9" value="role_id" style="shape=partialRectangle;connectable=0;fillColor=none;top=0;left=0;bottom=0;right=0;align=left;spacingLeft=6;overflow=hidden;" parent="XZS9UM0MvEhPxbXStr33-7" vertex="1">
                    <mxGeometry x="30" width="90" height="20" as="geometry"/>
                </mxCell>
                <mxCell id="XZS9UM0MvEhPxbXStr33-10" value="" style="shape=partialRectangle;collapsible=0;dropTarget=0;pointerEvents=0;fillColor=none;top=0;left=0;bottom=0;right=0;points=[[0,0.5],[1,0.5]];portConstraint=eastwest;" parent="XZS9UM0MvEhPxbXStr33-0" vertex="1">
                    <mxGeometry y="100" width="120" height="20" as="geometry"/>
                </mxCell>
                <mxCell id="XZS9UM0MvEhPxbXStr33-11" value="" style="shape=partialRectangle;connectable=0;fillColor=none;top=0;left=0;bottom=0;right=0;editable=1;overflow=hidden;" parent="XZS9UM0MvEhPxbXStr33-10" vertex="1">
                    <mxGeometry width="30" height="20" as="geometry"/>
                </mxCell>
                <mxCell id="XZS9UM0MvEhPxbXStr33-12" value="login_date" style="shape=partialRectangle;connectable=0;fillColor=none;top=0;left=0;bottom=0;right=0;align=left;spacingLeft=6;overflow=hidden;" parent="XZS9UM0MvEhPxbXStr33-10" vertex="1">
                    <mxGeometry x="30" width="90" height="20" as="geometry"/>
                </mxCell>
                <mxCell id="XZS9UM0MvEhPxbXStr33-13" value="" style="edgeStyle=entityRelationEdgeStyle;fontSize=12;html=1;endArrow=ERoneToMany;" parent="TchkiXIJ95gt_sCCpnTl-1" source="OusGNvMnw1ku1Nts1Jbt-1" target="XZS9UM0MvEhPxbXStr33-4" edge="1">
                    <mxGeometry width="100" height="100" relative="1" as="geometry">
                        <mxPoint x="627" y="630" as="sourcePoint"/>
                        <mxPoint x="727" y="530" as="targetPoint"/>
                    </mxGeometry>
                </mxCell>
                <mxCell id="EDu82KqYCRsH_Rk9Rt5Z-0" value="roles" style="shape=table;startSize=30;container=1;collapsible=1;childLayout=tableLayout;fixedRows=1;rowLines=0;fontStyle=1;align=center;resizeLast=1;" parent="TchkiXIJ95gt_sCCpnTl-1" vertex="1">
                    <mxGeometry x="617" y="665" width="120" height="140" as="geometry"/>
                </mxCell>
                <mxCell id="EDu82KqYCRsH_Rk9Rt5Z-1" value="" style="shape=partialRectangle;collapsible=0;dropTarget=0;pointerEvents=0;fillColor=none;top=0;left=0;bottom=1;right=0;points=[[0,0.5],[1,0.5]];portConstraint=eastwest;" parent="EDu82KqYCRsH_Rk9Rt5Z-0" vertex="1">
                    <mxGeometry y="30" width="120" height="30" as="geometry"/>
                </mxCell>
                <mxCell id="EDu82KqYCRsH_Rk9Rt5Z-2" value="PK" style="shape=partialRectangle;connectable=0;fillColor=none;top=0;left=0;bottom=0;right=0;fontStyle=1;overflow=hidden;" parent="EDu82KqYCRsH_Rk9Rt5Z-1" vertex="1">
                    <mxGeometry width="30" height="30" as="geometry"/>
                </mxCell>
                <mxCell id="EDu82KqYCRsH_Rk9Rt5Z-3" value="id" style="shape=partialRectangle;connectable=0;fillColor=none;top=0;left=0;bottom=0;right=0;align=left;spacingLeft=6;fontStyle=5;overflow=hidden;" parent="EDu82KqYCRsH_Rk9Rt5Z-1" vertex="1">
                    <mxGeometry x="30" width="90" height="30" as="geometry"/>
                </mxCell>
                <mxCell id="EDu82KqYCRsH_Rk9Rt5Z-4" value="" style="shape=partialRectangle;collapsible=0;dropTarget=0;pointerEvents=0;fillColor=none;top=0;left=0;bottom=0;right=0;points=[[0,0.5],[1,0.5]];portConstraint=eastwest;" parent="EDu82KqYCRsH_Rk9Rt5Z-0" vertex="1">
                    <mxGeometry y="60" width="120" height="20" as="geometry"/>
                </mxCell>
                <mxCell id="EDu82KqYCRsH_Rk9Rt5Z-5" value="" style="shape=partialRectangle;connectable=0;fillColor=none;top=0;left=0;bottom=0;right=0;editable=1;overflow=hidden;" parent="EDu82KqYCRsH_Rk9Rt5Z-4" vertex="1">
                    <mxGeometry width="30" height="20" as="geometry"/>
                </mxCell>
                <mxCell id="EDu82KqYCRsH_Rk9Rt5Z-6" value="role_name" style="shape=partialRectangle;connectable=0;fillColor=none;top=0;left=0;bottom=0;right=0;align=left;spacingLeft=6;overflow=hidden;" parent="EDu82KqYCRsH_Rk9Rt5Z-4" vertex="1">
                    <mxGeometry x="30" width="90" height="20" as="geometry"/>
                </mxCell>
                <mxCell id="EDu82KqYCRsH_Rk9Rt5Z-7" value="" style="shape=partialRectangle;collapsible=0;dropTarget=0;pointerEvents=0;fillColor=none;top=0;left=0;bottom=0;right=0;points=[[0,0.5],[1,0.5]];portConstraint=eastwest;" parent="EDu82KqYCRsH_Rk9Rt5Z-0" vertex="1">
                    <mxGeometry y="80" width="120" height="20" as="geometry"/>
                </mxCell>
                <mxCell id="EDu82KqYCRsH_Rk9Rt5Z-8" value="" style="shape=partialRectangle;connectable=0;fillColor=none;top=0;left=0;bottom=0;right=0;editable=1;overflow=hidden;" parent="EDu82KqYCRsH_Rk9Rt5Z-7" vertex="1">
                    <mxGeometry width="30" height="20" as="geometry"/>
                </mxCell>
                <mxCell id="EDu82KqYCRsH_Rk9Rt5Z-9" value="created_at" style="shape=partialRectangle;connectable=0;fillColor=none;top=0;left=0;bottom=0;right=0;align=left;spacingLeft=6;overflow=hidden;" parent="EDu82KqYCRsH_Rk9Rt5Z-7" vertex="1">
                    <mxGeometry x="30" width="90" height="20" as="geometry"/>
                </mxCell>
                <mxCell id="EDu82KqYCRsH_Rk9Rt5Z-10" value="" style="shape=partialRectangle;collapsible=0;dropTarget=0;pointerEvents=0;fillColor=none;top=0;left=0;bottom=0;right=0;points=[[0,0.5],[1,0.5]];portConstraint=eastwest;" parent="EDu82KqYCRsH_Rk9Rt5Z-0" vertex="1">
                    <mxGeometry y="100" width="120" height="20" as="geometry"/>
                </mxCell>
                <mxCell id="EDu82KqYCRsH_Rk9Rt5Z-11" value="" style="shape=partialRectangle;connectable=0;fillColor=none;top=0;left=0;bottom=0;right=0;editable=1;overflow=hidden;" parent="EDu82KqYCRsH_Rk9Rt5Z-10" vertex="1">
                    <mxGeometry width="30" height="20" as="geometry"/>
                </mxCell>
                <mxCell id="EDu82KqYCRsH_Rk9Rt5Z-12" value="updated_at" style="shape=partialRectangle;connectable=0;fillColor=none;top=0;left=0;bottom=0;right=0;align=left;spacingLeft=6;overflow=hidden;" parent="EDu82KqYCRsH_Rk9Rt5Z-10" vertex="1">
                    <mxGeometry x="30" width="90" height="20" as="geometry"/>
                </mxCell>
                <mxCell id="EDu82KqYCRsH_Rk9Rt5Z-13" value="" style="shape=partialRectangle;collapsible=0;dropTarget=0;pointerEvents=0;fillColor=none;top=0;left=0;bottom=0;right=0;points=[[0,0.5],[1,0.5]];portConstraint=eastwest;" parent="EDu82KqYCRsH_Rk9Rt5Z-0" vertex="1">
                    <mxGeometry y="120" width="120" height="20" as="geometry"/>
                </mxCell>
                <mxCell id="EDu82KqYCRsH_Rk9Rt5Z-14" value="" style="shape=partialRectangle;connectable=0;fillColor=none;top=0;left=0;bottom=0;right=0;editable=1;overflow=hidden;" parent="EDu82KqYCRsH_Rk9Rt5Z-13" vertex="1">
                    <mxGeometry width="30" height="20" as="geometry"/>
                </mxCell>
                <mxCell id="EDu82KqYCRsH_Rk9Rt5Z-15" value="deleted_at" style="shape=partialRectangle;connectable=0;fillColor=none;top=0;left=0;bottom=0;right=0;align=left;spacingLeft=6;overflow=hidden;" parent="EDu82KqYCRsH_Rk9Rt5Z-13" vertex="1">
                    <mxGeometry x="30" width="90" height="20" as="geometry"/>
                </mxCell>
                <mxCell id="EDu82KqYCRsH_Rk9Rt5Z-17" value="" style="edgeStyle=entityRelationEdgeStyle;fontSize=12;html=1;endArrow=ERmandOne;startArrow=ERmandOne;" parent="TchkiXIJ95gt_sCCpnTl-1" source="OusGNvMnw1ku1Nts1Jbt-37" target="EDu82KqYCRsH_Rk9Rt5Z-1" edge="1">
                    <mxGeometry width="100" height="100" relative="1" as="geometry">
                        <mxPoint x="667" y="820" as="sourcePoint"/>
                        <mxPoint x="767" y="720" as="targetPoint"/>
                    </mxGeometry>
                </mxCell>
                <mxCell id="EDu82KqYCRsH_Rk9Rt5Z-18" value="" style="edgeStyle=entityRelationEdgeStyle;fontSize=12;html=1;endArrow=ERmandOne;startArrow=ERmandOne;" parent="TchkiXIJ95gt_sCCpnTl-1" source="XZS9UM0MvEhPxbXStr33-7" target="EDu82KqYCRsH_Rk9Rt5Z-1" edge="1">
                    <mxGeometry width="100" height="100" relative="1" as="geometry">
                        <mxPoint x="617" y="680" as="sourcePoint"/>
                        <mxPoint x="687" y="585" as="targetPoint"/>
                    </mxGeometry>
                </mxCell>
                <mxCell id="B9batVLkVXG9Ts27lN0K-0" value="file_sharing" style="shape=table;startSize=30;container=1;collapsible=1;childLayout=tableLayout;fixedRows=1;rowLines=0;fontStyle=1;align=center;resizeLast=1;" parent="TchkiXIJ95gt_sCCpnTl-1" vertex="1">
                    <mxGeometry x="792" y="405" width="115" height="260" as="geometry"/>
                </mxCell>
                <mxCell id="B9batVLkVXG9Ts27lN0K-1" value="" style="shape=partialRectangle;collapsible=0;dropTarget=0;pointerEvents=0;fillColor=none;top=0;left=0;bottom=1;right=0;points=[[0,0.5],[1,0.5]];portConstraint=eastwest;" parent="B9batVLkVXG9Ts27lN0K-0" vertex="1">
                    <mxGeometry y="30" width="115" height="30" as="geometry"/>
                </mxCell>
                <mxCell id="B9batVLkVXG9Ts27lN0K-2" value="PK" style="shape=partialRectangle;connectable=0;fillColor=none;top=0;left=0;bottom=0;right=0;fontStyle=1;overflow=hidden;" parent="B9batVLkVXG9Ts27lN0K-1" vertex="1">
                    <mxGeometry width="30" height="30" as="geometry"/>
                </mxCell>
                <mxCell id="B9batVLkVXG9Ts27lN0K-3" value="id" style="shape=partialRectangle;connectable=0;fillColor=none;top=0;left=0;bottom=0;right=0;align=left;spacingLeft=6;fontStyle=5;overflow=hidden;" parent="B9batVLkVXG9Ts27lN0K-1" vertex="1">
                    <mxGeometry x="30" width="85" height="30" as="geometry"/>
                </mxCell>
                <mxCell id="B9batVLkVXG9Ts27lN0K-4" value="" style="shape=partialRectangle;collapsible=0;dropTarget=0;pointerEvents=0;fillColor=none;top=0;left=0;bottom=0;right=0;points=[[0,0.5],[1,0.5]];portConstraint=eastwest;" parent="B9batVLkVXG9Ts27lN0K-0" vertex="1">
                    <mxGeometry y="60" width="115" height="20" as="geometry"/>
                </mxCell>
                <mxCell id="B9batVLkVXG9Ts27lN0K-5" value="" style="shape=partialRectangle;connectable=0;fillColor=none;top=0;left=0;bottom=0;right=0;editable=1;overflow=hidden;" parent="B9batVLkVXG9Ts27lN0K-4" vertex="1">
                    <mxGeometry width="30" height="20" as="geometry"/>
                </mxCell>
                <mxCell id="B9batVLkVXG9Ts27lN0K-6" value="file_name" style="shape=partialRectangle;connectable=0;fillColor=none;top=0;left=0;bottom=0;right=0;align=left;spacingLeft=6;overflow=hidden;" parent="B9batVLkVXG9Ts27lN0K-4" vertex="1">
                    <mxGeometry x="30" width="85" height="20" as="geometry"/>
                </mxCell>
                <mxCell id="B9batVLkVXG9Ts27lN0K-7" value="" style="shape=partialRectangle;collapsible=0;dropTarget=0;pointerEvents=0;fillColor=none;top=0;left=0;bottom=0;right=0;points=[[0,0.5],[1,0.5]];portConstraint=eastwest;" parent="B9batVLkVXG9Ts27lN0K-0" vertex="1">
                    <mxGeometry y="80" width="115" height="20" as="geometry"/>
                </mxCell>
                <mxCell id="B9batVLkVXG9Ts27lN0K-8" value="" style="shape=partialRectangle;connectable=0;fillColor=none;top=0;left=0;bottom=0;right=0;editable=1;overflow=hidden;" parent="B9batVLkVXG9Ts27lN0K-7" vertex="1">
                    <mxGeometry width="30" height="20" as="geometry"/>
                </mxCell>
                <mxCell id="B9batVLkVXG9Ts27lN0K-9" value="size" style="shape=partialRectangle;connectable=0;fillColor=none;top=0;left=0;bottom=0;right=0;align=left;spacingLeft=6;overflow=hidden;" parent="B9batVLkVXG9Ts27lN0K-7" vertex="1">
                    <mxGeometry x="30" width="85" height="20" as="geometry"/>
                </mxCell>
                <mxCell id="B9batVLkVXG9Ts27lN0K-10" value="" style="shape=partialRectangle;collapsible=0;dropTarget=0;pointerEvents=0;fillColor=none;top=0;left=0;bottom=0;right=0;points=[[0,0.5],[1,0.5]];portConstraint=eastwest;" parent="B9batVLkVXG9Ts27lN0K-0" vertex="1">
                    <mxGeometry y="100" width="115" height="20" as="geometry"/>
                </mxCell>
                <mxCell id="B9batVLkVXG9Ts27lN0K-11" value="" style="shape=partialRectangle;connectable=0;fillColor=none;top=0;left=0;bottom=0;right=0;editable=1;overflow=hidden;" parent="B9batVLkVXG9Ts27lN0K-10" vertex="1">
                    <mxGeometry width="30" height="20" as="geometry"/>
                </mxCell>
                <mxCell id="B9batVLkVXG9Ts27lN0K-12" value="extension" style="shape=partialRectangle;connectable=0;fillColor=none;top=0;left=0;bottom=0;right=0;align=left;spacingLeft=6;overflow=hidden;" parent="B9batVLkVXG9Ts27lN0K-10" vertex="1">
                    <mxGeometry x="30" width="85" height="20" as="geometry"/>
                </mxCell>
                <mxCell id="B9batVLkVXG9Ts27lN0K-13" value="" style="shape=partialRectangle;collapsible=0;dropTarget=0;pointerEvents=0;fillColor=none;top=0;left=0;bottom=0;right=0;points=[[0,0.5],[1,0.5]];portConstraint=eastwest;" parent="B9batVLkVXG9Ts27lN0K-0" vertex="1">
                    <mxGeometry y="120" width="115" height="20" as="geometry"/>
                </mxCell>
                <mxCell id="B9batVLkVXG9Ts27lN0K-14" value="FK" style="shape=partialRectangle;connectable=0;fillColor=none;top=0;left=0;bottom=0;right=0;editable=1;overflow=hidden;fontStyle=1" parent="B9batVLkVXG9Ts27lN0K-13" vertex="1">
                    <mxGeometry width="30" height="20" as="geometry"/>
                </mxCell>
                <mxCell id="B9batVLkVXG9Ts27lN0K-15" value="uploader" style="shape=partialRectangle;connectable=0;fillColor=none;top=0;left=0;bottom=0;right=0;align=left;spacingLeft=6;overflow=hidden;" parent="B9batVLkVXG9Ts27lN0K-13" vertex="1">
                    <mxGeometry x="30" width="85" height="20" as="geometry"/>
                </mxCell>
                <mxCell id="B9batVLkVXG9Ts27lN0K-16" value="" style="shape=partialRectangle;collapsible=0;dropTarget=0;pointerEvents=0;fillColor=none;top=0;left=0;bottom=0;right=0;points=[[0,0.5],[1,0.5]];portConstraint=eastwest;" parent="B9batVLkVXG9Ts27lN0K-0" vertex="1">
                    <mxGeometry y="140" width="115" height="20" as="geometry"/>
                </mxCell>
                <mxCell id="B9batVLkVXG9Ts27lN0K-17" value="" style="shape=partialRectangle;connectable=0;fillColor=none;top=0;left=0;bottom=0;right=0;editable=1;overflow=hidden;" parent="B9batVLkVXG9Ts27lN0K-16" vertex="1">
                    <mxGeometry width="30" height="20" as="geometry"/>
                </mxCell>
                <mxCell id="B9batVLkVXG9Ts27lN0K-18" value="category" style="shape=partialRectangle;connectable=0;fillColor=none;top=0;left=0;bottom=0;right=0;align=left;spacingLeft=6;overflow=hidden;" parent="B9batVLkVXG9Ts27lN0K-16" vertex="1">
                    <mxGeometry x="30" width="85" height="20" as="geometry"/>
                </mxCell>
                <mxCell id="B9batVLkVXG9Ts27lN0K-19" value="" style="shape=partialRectangle;collapsible=0;dropTarget=0;pointerEvents=0;fillColor=none;top=0;left=0;bottom=0;right=0;points=[[0,0.5],[1,0.5]];portConstraint=eastwest;" parent="B9batVLkVXG9Ts27lN0K-0" vertex="1">
                    <mxGeometry y="160" width="115" height="20" as="geometry"/>
                </mxCell>
                <mxCell id="B9batVLkVXG9Ts27lN0K-20" value="" style="shape=partialRectangle;connectable=0;fillColor=none;top=0;left=0;bottom=0;right=0;editable=1;overflow=hidden;" parent="B9batVLkVXG9Ts27lN0K-19" vertex="1">
                    <mxGeometry width="30" height="20" as="geometry"/>
                </mxCell>
                <mxCell id="B9batVLkVXG9Ts27lN0K-21" value="downloads" style="shape=partialRectangle;connectable=0;fillColor=none;top=0;left=0;bottom=0;right=0;align=left;spacingLeft=6;overflow=hidden;" parent="B9batVLkVXG9Ts27lN0K-19" vertex="1">
                    <mxGeometry x="30" width="85" height="20" as="geometry"/>
                </mxCell>
                <mxCell id="B9batVLkVXG9Ts27lN0K-22" value="" style="shape=partialRectangle;collapsible=0;dropTarget=0;pointerEvents=0;fillColor=none;top=0;left=0;bottom=0;right=0;points=[[0,0.5],[1,0.5]];portConstraint=eastwest;" parent="B9batVLkVXG9Ts27lN0K-0" vertex="1">
                    <mxGeometry y="180" width="115" height="20" as="geometry"/>
                </mxCell>
                <mxCell id="B9batVLkVXG9Ts27lN0K-23" value="" style="shape=partialRectangle;connectable=0;fillColor=none;top=0;left=0;bottom=0;right=0;editable=1;overflow=hidden;" parent="B9batVLkVXG9Ts27lN0K-22" vertex="1">
                    <mxGeometry width="30" height="20" as="geometry"/>
                </mxCell>
                <mxCell id="B9batVLkVXG9Ts27lN0K-24" value="visibility" style="shape=partialRectangle;connectable=0;fillColor=none;top=0;left=0;bottom=0;right=0;align=left;spacingLeft=6;overflow=hidden;" parent="B9batVLkVXG9Ts27lN0K-22" vertex="1">
                    <mxGeometry x="30" width="85" height="20" as="geometry"/>
                </mxCell>
                <mxCell id="B9batVLkVXG9Ts27lN0K-25" value="" style="shape=partialRectangle;collapsible=0;dropTarget=0;pointerEvents=0;fillColor=none;top=0;left=0;bottom=0;right=0;points=[[0,0.5],[1,0.5]];portConstraint=eastwest;" parent="B9batVLkVXG9Ts27lN0K-0" vertex="1">
                    <mxGeometry y="200" width="115" height="20" as="geometry"/>
                </mxCell>
                <mxCell id="B9batVLkVXG9Ts27lN0K-26" value="" style="shape=partialRectangle;connectable=0;fillColor=none;top=0;left=0;bottom=0;right=0;editable=1;overflow=hidden;" parent="B9batVLkVXG9Ts27lN0K-25" vertex="1">
                    <mxGeometry width="30" height="20" as="geometry"/>
                </mxCell>
                <mxCell id="B9batVLkVXG9Ts27lN0K-27" value="uploaded_at" style="shape=partialRectangle;connectable=0;fillColor=none;top=0;left=0;bottom=0;right=0;align=left;spacingLeft=6;overflow=hidden;" parent="B9batVLkVXG9Ts27lN0K-25" vertex="1">
                    <mxGeometry x="30" width="85" height="20" as="geometry"/>
                </mxCell>
                <mxCell id="B9batVLkVXG9Ts27lN0K-28" value="" style="shape=partialRectangle;collapsible=0;dropTarget=0;pointerEvents=0;fillColor=none;top=0;left=0;bottom=0;right=0;points=[[0,0.5],[1,0.5]];portConstraint=eastwest;" parent="B9batVLkVXG9Ts27lN0K-0" vertex="1">
                    <mxGeometry y="220" width="115" height="20" as="geometry"/>
                </mxCell>
                <mxCell id="B9batVLkVXG9Ts27lN0K-29" value="" style="shape=partialRectangle;connectable=0;fillColor=none;top=0;left=0;bottom=0;right=0;editable=1;overflow=hidden;" parent="B9batVLkVXG9Ts27lN0K-28" vertex="1">
                    <mxGeometry width="30" height="20" as="geometry"/>
                </mxCell>
                <mxCell id="B9batVLkVXG9Ts27lN0K-30" value="updated_at" style="shape=partialRectangle;connectable=0;fillColor=none;top=0;left=0;bottom=0;right=0;align=left;spacingLeft=6;overflow=hidden;" parent="B9batVLkVXG9Ts27lN0K-28" vertex="1">
                    <mxGeometry x="30" width="85" height="20" as="geometry"/>
                </mxCell>
                <mxCell id="B9batVLkVXG9Ts27lN0K-31" value="" style="shape=partialRectangle;collapsible=0;dropTarget=0;pointerEvents=0;fillColor=none;top=0;left=0;bottom=0;right=0;points=[[0,0.5],[1,0.5]];portConstraint=eastwest;" parent="B9batVLkVXG9Ts27lN0K-0" vertex="1">
                    <mxGeometry y="240" width="115" height="20" as="geometry"/>
                </mxCell>
                <mxCell id="B9batVLkVXG9Ts27lN0K-32" value="" style="shape=partialRectangle;connectable=0;fillColor=none;top=0;left=0;bottom=0;right=0;editable=1;overflow=hidden;" parent="B9batVLkVXG9Ts27lN0K-31" vertex="1">
                    <mxGeometry width="30" height="20" as="geometry"/>
                </mxCell>
                <mxCell id="B9batVLkVXG9Ts27lN0K-33" value="deleted_at" style="shape=partialRectangle;connectable=0;fillColor=none;top=0;left=0;bottom=0;right=0;align=left;spacingLeft=6;overflow=hidden;" parent="B9batVLkVXG9Ts27lN0K-31" vertex="1">
                    <mxGeometry x="30" width="85" height="20" as="geometry"/>
                </mxCell>
                <mxCell id="B9batVLkVXG9Ts27lN0K-34" value="" style="edgeStyle=entityRelationEdgeStyle;fontSize=12;html=1;endArrow=ERoneToMany;entryX=0.053;entryY=-0.276;entryDx=0;entryDy=0;entryPerimeter=0;" parent="TchkiXIJ95gt_sCCpnTl-1" source="OusGNvMnw1ku1Nts1Jbt-19" target="B9batVLkVXG9Ts27lN0K-13" edge="1">
                    <mxGeometry width="100" height="100" relative="1" as="geometry">
                        <mxPoint x="587" y="600" as="sourcePoint"/>
                        <mxPoint x="687" y="500" as="targetPoint"/>
                    </mxGeometry>
                </mxCell>
                <mxCell id="pVl0PXtpnprJLV77XBl3-0" value="role_permission" style="shape=table;startSize=30;container=1;collapsible=1;childLayout=tableLayout;fixedRows=1;rowLines=0;fontStyle=1;align=center;resizeLast=1;" parent="TchkiXIJ95gt_sCCpnTl-1" vertex="1">
                    <mxGeometry x="792" y="680" width="138" height="180" as="geometry"/>
                </mxCell>
                <mxCell id="pVl0PXtpnprJLV77XBl3-1" value="" style="shape=partialRectangle;collapsible=0;dropTarget=0;pointerEvents=0;fillColor=none;top=0;left=0;bottom=1;right=0;points=[[0,0.5],[1,0.5]];portConstraint=eastwest;" parent="pVl0PXtpnprJLV77XBl3-0" vertex="1">
                    <mxGeometry y="30" width="138" height="30" as="geometry"/>
                </mxCell>
                <mxCell id="pVl0PXtpnprJLV77XBl3-2" value="PK" style="shape=partialRectangle;connectable=0;fillColor=none;top=0;left=0;bottom=0;right=0;fontStyle=1;overflow=hidden;" parent="pVl0PXtpnprJLV77XBl3-1" vertex="1">
                    <mxGeometry width="30" height="30" as="geometry"/>
                </mxCell>
                <mxCell id="pVl0PXtpnprJLV77XBl3-3" value="id" style="shape=partialRectangle;connectable=0;fillColor=none;top=0;left=0;bottom=0;right=0;align=left;spacingLeft=6;fontStyle=5;overflow=hidden;" parent="pVl0PXtpnprJLV77XBl3-1" vertex="1">
                    <mxGeometry x="30" width="108" height="30" as="geometry"/>
                </mxCell>
                <mxCell id="pVl0PXtpnprJLV77XBl3-4" value="" style="shape=partialRectangle;collapsible=0;dropTarget=0;pointerEvents=0;fillColor=none;top=0;left=0;bottom=0;right=0;points=[[0,0.5],[1,0.5]];portConstraint=eastwest;" parent="pVl0PXtpnprJLV77XBl3-0" vertex="1">
                    <mxGeometry y="60" width="138" height="20" as="geometry"/>
                </mxCell>
                <mxCell id="pVl0PXtpnprJLV77XBl3-5" value="FK" style="shape=partialRectangle;connectable=0;fillColor=none;top=0;left=0;bottom=0;right=0;editable=1;overflow=hidden;fontStyle=1" parent="pVl0PXtpnprJLV77XBl3-4" vertex="1">
                    <mxGeometry width="30" height="20" as="geometry"/>
                </mxCell>
                <mxCell id="pVl0PXtpnprJLV77XBl3-6" value="role_id" style="shape=partialRectangle;connectable=0;fillColor=none;top=0;left=0;bottom=0;right=0;align=left;spacingLeft=6;overflow=hidden;" parent="pVl0PXtpnprJLV77XBl3-4" vertex="1">
                    <mxGeometry x="30" width="108" height="20" as="geometry"/>
                </mxCell>
                <mxCell id="pVl0PXtpnprJLV77XBl3-7" value="" style="shape=partialRectangle;collapsible=0;dropTarget=0;pointerEvents=0;fillColor=none;top=0;left=0;bottom=0;right=0;points=[[0,0.5],[1,0.5]];portConstraint=eastwest;" parent="pVl0PXtpnprJLV77XBl3-0" vertex="1">
                    <mxGeometry y="80" width="138" height="20" as="geometry"/>
                </mxCell>
                <mxCell id="pVl0PXtpnprJLV77XBl3-8" value="" style="shape=partialRectangle;connectable=0;fillColor=none;top=0;left=0;bottom=0;right=0;editable=1;overflow=hidden;" parent="pVl0PXtpnprJLV77XBl3-7" vertex="1">
                    <mxGeometry width="30" height="20" as="geometry"/>
                </mxCell>
                <mxCell id="pVl0PXtpnprJLV77XBl3-9" value="perm_mod" style="shape=partialRectangle;connectable=0;fillColor=none;top=0;left=0;bottom=0;right=0;align=left;spacingLeft=6;overflow=hidden;" parent="pVl0PXtpnprJLV77XBl3-7" vertex="1">
                    <mxGeometry x="30" width="108" height="20" as="geometry"/>
                </mxCell>
                <mxCell id="pVl0PXtpnprJLV77XBl3-10" value="" style="shape=partialRectangle;collapsible=0;dropTarget=0;pointerEvents=0;fillColor=none;top=0;left=0;bottom=0;right=0;points=[[0,0.5],[1,0.5]];portConstraint=eastwest;" parent="pVl0PXtpnprJLV77XBl3-0" vertex="1">
                    <mxGeometry y="100" width="138" height="20" as="geometry"/>
                </mxCell>
                <mxCell id="pVl0PXtpnprJLV77XBl3-11" value="FK" style="shape=partialRectangle;connectable=0;fillColor=none;top=0;left=0;bottom=0;right=0;editable=1;overflow=hidden;fontStyle=1" parent="pVl0PXtpnprJLV77XBl3-10" vertex="1">
                    <mxGeometry width="30" height="20" as="geometry"/>
                </mxCell>
                <mxCell id="pVl0PXtpnprJLV77XBl3-12" value="perm_id" style="shape=partialRectangle;connectable=0;fillColor=none;top=0;left=0;bottom=0;right=0;align=left;spacingLeft=6;overflow=hidden;" parent="pVl0PXtpnprJLV77XBl3-10" vertex="1">
                    <mxGeometry x="30" width="108" height="20" as="geometry"/>
                </mxCell>
                <mxCell id="pVl0PXtpnprJLV77XBl3-13" value="" style="shape=partialRectangle;collapsible=0;dropTarget=0;pointerEvents=0;fillColor=none;top=0;left=0;bottom=0;right=0;points=[[0,0.5],[1,0.5]];portConstraint=eastwest;" parent="pVl0PXtpnprJLV77XBl3-0" vertex="1">
                    <mxGeometry y="120" width="138" height="20" as="geometry"/>
                </mxCell>
                <mxCell id="pVl0PXtpnprJLV77XBl3-14" value="" style="shape=partialRectangle;connectable=0;fillColor=none;top=0;left=0;bottom=0;right=0;editable=1;overflow=hidden;" parent="pVl0PXtpnprJLV77XBl3-13" vertex="1">
                    <mxGeometry width="30" height="20" as="geometry"/>
                </mxCell>
                <mxCell id="pVl0PXtpnprJLV77XBl3-15" value="created_at" style="shape=partialRectangle;connectable=0;fillColor=none;top=0;left=0;bottom=0;right=0;align=left;spacingLeft=6;overflow=hidden;" parent="pVl0PXtpnprJLV77XBl3-13" vertex="1">
                    <mxGeometry x="30" width="108" height="20" as="geometry"/>
                </mxCell>
                <mxCell id="pVl0PXtpnprJLV77XBl3-16" value="" style="shape=partialRectangle;collapsible=0;dropTarget=0;pointerEvents=0;fillColor=none;top=0;left=0;bottom=0;right=0;points=[[0,0.5],[1,0.5]];portConstraint=eastwest;" parent="pVl0PXtpnprJLV77XBl3-0" vertex="1">
                    <mxGeometry y="140" width="138" height="20" as="geometry"/>
                </mxCell>
                <mxCell id="pVl0PXtpnprJLV77XBl3-17" value="" style="shape=partialRectangle;connectable=0;fillColor=none;top=0;left=0;bottom=0;right=0;editable=1;overflow=hidden;" parent="pVl0PXtpnprJLV77XBl3-16" vertex="1">
                    <mxGeometry width="30" height="20" as="geometry"/>
                </mxCell>
                <mxCell id="pVl0PXtpnprJLV77XBl3-18" value="updated_at" style="shape=partialRectangle;connectable=0;fillColor=none;top=0;left=0;bottom=0;right=0;align=left;spacingLeft=6;overflow=hidden;" parent="pVl0PXtpnprJLV77XBl3-16" vertex="1">
                    <mxGeometry x="30" width="108" height="20" as="geometry"/>
                </mxCell>
                <mxCell id="pVl0PXtpnprJLV77XBl3-19" value="" style="shape=partialRectangle;collapsible=0;dropTarget=0;pointerEvents=0;fillColor=none;top=0;left=0;bottom=0;right=0;points=[[0,0.5],[1,0.5]];portConstraint=eastwest;" parent="pVl0PXtpnprJLV77XBl3-0" vertex="1">
                    <mxGeometry y="160" width="138" height="20" as="geometry"/>
                </mxCell>
                <mxCell id="pVl0PXtpnprJLV77XBl3-20" value="" style="shape=partialRectangle;connectable=0;fillColor=none;top=0;left=0;bottom=0;right=0;editable=1;overflow=hidden;" parent="pVl0PXtpnprJLV77XBl3-19" vertex="1">
                    <mxGeometry width="30" height="20" as="geometry"/>
                </mxCell>
                <mxCell id="pVl0PXtpnprJLV77XBl3-21" value="deleted_at" style="shape=partialRectangle;connectable=0;fillColor=none;top=0;left=0;bottom=0;right=0;align=left;spacingLeft=6;overflow=hidden;" parent="pVl0PXtpnprJLV77XBl3-19" vertex="1">
                    <mxGeometry x="30" width="108" height="20" as="geometry"/>
                </mxCell>
                <mxCell id="RUEzLRlgVMn5PgosUIJJ-0" value="permissions" style="shape=table;startSize=30;container=1;collapsible=1;childLayout=tableLayout;fixedRows=1;rowLines=0;fontStyle=1;align=center;resizeLast=1;" parent="TchkiXIJ95gt_sCCpnTl-1" vertex="1">
                    <mxGeometry x="970" y="680" width="120" height="100" as="geometry"/>
                </mxCell>
                <mxCell id="RUEzLRlgVMn5PgosUIJJ-1" value="" style="shape=partialRectangle;collapsible=0;dropTarget=0;pointerEvents=0;fillColor=none;top=0;left=0;bottom=1;right=0;points=[[0,0.5],[1,0.5]];portConstraint=eastwest;" parent="RUEzLRlgVMn5PgosUIJJ-0" vertex="1">
                    <mxGeometry y="30" width="120" height="30" as="geometry"/>
                </mxCell>
                <mxCell id="RUEzLRlgVMn5PgosUIJJ-2" value="PK" style="shape=partialRectangle;connectable=0;fillColor=none;top=0;left=0;bottom=0;right=0;fontStyle=1;overflow=hidden;" parent="RUEzLRlgVMn5PgosUIJJ-1" vertex="1">
                    <mxGeometry width="30" height="30" as="geometry"/>
                </mxCell>
                <mxCell id="RUEzLRlgVMn5PgosUIJJ-3" value="id" style="shape=partialRectangle;connectable=0;fillColor=none;top=0;left=0;bottom=0;right=0;align=left;spacingLeft=6;fontStyle=5;overflow=hidden;" parent="RUEzLRlgVMn5PgosUIJJ-1" vertex="1">
                    <mxGeometry x="30" width="90" height="30" as="geometry"/>
                </mxCell>
                <mxCell id="RUEzLRlgVMn5PgosUIJJ-4" value="" style="shape=partialRectangle;collapsible=0;dropTarget=0;pointerEvents=0;fillColor=none;top=0;left=0;bottom=0;right=0;points=[[0,0.5],[1,0.5]];portConstraint=eastwest;" parent="RUEzLRlgVMn5PgosUIJJ-0" vertex="1">
                    <mxGeometry y="60" width="120" height="20" as="geometry"/>
                </mxCell>
                <mxCell id="RUEzLRlgVMn5PgosUIJJ-5" value="" style="shape=partialRectangle;connectable=0;fillColor=none;top=0;left=0;bottom=0;right=0;editable=1;overflow=hidden;" parent="RUEzLRlgVMn5PgosUIJJ-4" vertex="1">
                    <mxGeometry width="30" height="20" as="geometry"/>
                </mxCell>
                <mxCell id="RUEzLRlgVMn5PgosUIJJ-6" value="perm_mod" style="shape=partialRectangle;connectable=0;fillColor=none;top=0;left=0;bottom=0;right=0;align=left;spacingLeft=6;overflow=hidden;" parent="RUEzLRlgVMn5PgosUIJJ-4" vertex="1">
                    <mxGeometry x="30" width="90" height="20" as="geometry"/>
                </mxCell>
                <mxCell id="RUEzLRlgVMn5PgosUIJJ-7" value="" style="shape=partialRectangle;collapsible=0;dropTarget=0;pointerEvents=0;fillColor=none;top=0;left=0;bottom=0;right=0;points=[[0,0.5],[1,0.5]];portConstraint=eastwest;" parent="RUEzLRlgVMn5PgosUIJJ-0" vertex="1">
                    <mxGeometry y="80" width="120" height="20" as="geometry"/>
                </mxCell>
                <mxCell id="RUEzLRlgVMn5PgosUIJJ-8" value="" style="shape=partialRectangle;connectable=0;fillColor=none;top=0;left=0;bottom=0;right=0;editable=1;overflow=hidden;" parent="RUEzLRlgVMn5PgosUIJJ-7" vertex="1">
                    <mxGeometry width="30" height="20" as="geometry"/>
                </mxCell>
                <mxCell id="RUEzLRlgVMn5PgosUIJJ-9" value="desc" style="shape=partialRectangle;connectable=0;fillColor=none;top=0;left=0;bottom=0;right=0;align=left;spacingLeft=6;overflow=hidden;" parent="RUEzLRlgVMn5PgosUIJJ-7" vertex="1">
                    <mxGeometry x="30" width="90" height="20" as="geometry"/>
                </mxCell>
                <mxCell id="RUEzLRlgVMn5PgosUIJJ-10" value="" style="edgeStyle=entityRelationEdgeStyle;fontSize=12;html=1;endArrow=ERmany;startArrow=ERmany;" parent="TchkiXIJ95gt_sCCpnTl-1" source="EDu82KqYCRsH_Rk9Rt5Z-4" target="pVl0PXtpnprJLV77XBl3-4" edge="1">
                    <mxGeometry width="100" height="100" relative="1" as="geometry">
                        <mxPoint x="630" y="990" as="sourcePoint"/>
                        <mxPoint x="730" y="890" as="targetPoint"/>
                    </mxGeometry>
                </mxCell>
                <mxCell id="RUEzLRlgVMn5PgosUIJJ-13" value="" style="edgeStyle=entityRelationEdgeStyle;fontSize=12;html=1;endArrow=ERoneToMany;entryX=1;entryY=0.5;entryDx=0;entryDy=0;" parent="TchkiXIJ95gt_sCCpnTl-1" source="RUEzLRlgVMn5PgosUIJJ-1" target="pVl0PXtpnprJLV77XBl3-10" edge="1">
                    <mxGeometry width="100" height="100" relative="1" as="geometry">
                        <mxPoint x="820" y="870" as="sourcePoint"/>
                        <mxPoint x="920" y="770" as="targetPoint"/>
                    </mxGeometry>
                </mxCell>
                <mxCell id="UWN-dexHC-UgTUI-VArS-0" value="threads" style="shape=table;startSize=30;container=1;collapsible=1;childLayout=tableLayout;fixedRows=1;rowLines=0;fontStyle=1;align=center;resizeLast=1;" parent="TchkiXIJ95gt_sCCpnTl-1" vertex="1">
                    <mxGeometry x="437" y="60" width="120" height="220" as="geometry"/>
                </mxCell>
                <mxCell id="UWN-dexHC-UgTUI-VArS-1" value="" style="shape=partialRectangle;collapsible=0;dropTarget=0;pointerEvents=0;fillColor=none;top=0;left=0;bottom=1;right=0;points=[[0,0.5],[1,0.5]];portConstraint=eastwest;" parent="UWN-dexHC-UgTUI-VArS-0" vertex="1">
                    <mxGeometry y="30" width="120" height="30" as="geometry"/>
                </mxCell>
                <mxCell id="UWN-dexHC-UgTUI-VArS-2" value="PK" style="shape=partialRectangle;connectable=0;fillColor=none;top=0;left=0;bottom=0;right=0;fontStyle=1;overflow=hidden;" parent="UWN-dexHC-UgTUI-VArS-1" vertex="1">
                    <mxGeometry width="30" height="30" as="geometry"/>
                </mxCell>
                <mxCell id="UWN-dexHC-UgTUI-VArS-3" value="id" style="shape=partialRectangle;connectable=0;fillColor=none;top=0;left=0;bottom=0;right=0;align=left;spacingLeft=6;fontStyle=5;overflow=hidden;" parent="UWN-dexHC-UgTUI-VArS-1" vertex="1">
                    <mxGeometry x="30" width="90" height="30" as="geometry"/>
                </mxCell>
                <mxCell id="UWN-dexHC-UgTUI-VArS-4" value="" style="shape=partialRectangle;collapsible=0;dropTarget=0;pointerEvents=0;fillColor=none;top=0;left=0;bottom=0;right=0;points=[[0,0.5],[1,0.5]];portConstraint=eastwest;" parent="UWN-dexHC-UgTUI-VArS-0" vertex="1">
                    <mxGeometry y="60" width="120" height="20" as="geometry"/>
                </mxCell>
                <mxCell id="UWN-dexHC-UgTUI-VArS-5" value="" style="shape=partialRectangle;connectable=0;fillColor=none;top=0;left=0;bottom=0;right=0;editable=1;overflow=hidden;" parent="UWN-dexHC-UgTUI-VArS-4" vertex="1">
                    <mxGeometry width="30" height="20" as="geometry"/>
                </mxCell>
                <mxCell id="UWN-dexHC-UgTUI-VArS-6" value="subject" style="shape=partialRectangle;connectable=0;fillColor=none;top=0;left=0;bottom=0;right=0;align=left;spacingLeft=6;overflow=hidden;" parent="UWN-dexHC-UgTUI-VArS-4" vertex="1">
                    <mxGeometry x="30" width="90" height="20" as="geometry"/>
                </mxCell>
                <mxCell id="UWN-dexHC-UgTUI-VArS-7" value="" style="shape=partialRectangle;collapsible=0;dropTarget=0;pointerEvents=0;fillColor=none;top=0;left=0;bottom=0;right=0;points=[[0,0.5],[1,0.5]];portConstraint=eastwest;" parent="UWN-dexHC-UgTUI-VArS-0" vertex="1">
                    <mxGeometry y="80" width="120" height="20" as="geometry"/>
                </mxCell>
                <mxCell id="UWN-dexHC-UgTUI-VArS-8" value="FK" style="shape=partialRectangle;connectable=0;fillColor=none;top=0;left=0;bottom=0;right=0;editable=1;overflow=hidden;fontStyle=1" parent="UWN-dexHC-UgTUI-VArS-7" vertex="1">
                    <mxGeometry width="30" height="20" as="geometry"/>
                </mxCell>
                <mxCell id="UWN-dexHC-UgTUI-VArS-9" value="creator" style="shape=partialRectangle;connectable=0;fillColor=none;top=0;left=0;bottom=0;right=0;align=left;spacingLeft=6;overflow=hidden;" parent="UWN-dexHC-UgTUI-VArS-7" vertex="1">
                    <mxGeometry x="30" width="90" height="20" as="geometry"/>
                </mxCell>
                <mxCell id="UWN-dexHC-UgTUI-VArS-10" value="" style="shape=partialRectangle;collapsible=0;dropTarget=0;pointerEvents=0;fillColor=none;top=0;left=0;bottom=0;right=0;points=[[0,0.5],[1,0.5]];portConstraint=eastwest;" parent="UWN-dexHC-UgTUI-VArS-0" vertex="1">
                    <mxGeometry y="100" width="120" height="20" as="geometry"/>
                </mxCell>
                <mxCell id="UWN-dexHC-UgTUI-VArS-11" value="" style="shape=partialRectangle;connectable=0;fillColor=none;top=0;left=0;bottom=0;right=0;editable=1;overflow=hidden;" parent="UWN-dexHC-UgTUI-VArS-10" vertex="1">
                    <mxGeometry width="30" height="20" as="geometry"/>
                </mxCell>
                <mxCell id="UWN-dexHC-UgTUI-VArS-12" value="visibility" style="shape=partialRectangle;connectable=0;fillColor=none;top=0;left=0;bottom=0;right=0;align=left;spacingLeft=6;overflow=hidden;" parent="UWN-dexHC-UgTUI-VArS-10" vertex="1">
                    <mxGeometry x="30" width="90" height="20" as="geometry"/>
                </mxCell>
                <mxCell id="UWN-dexHC-UgTUI-VArS-13" value="" style="shape=partialRectangle;collapsible=0;dropTarget=0;pointerEvents=0;fillColor=none;top=0;left=0;bottom=0;right=0;points=[[0,0.5],[1,0.5]];portConstraint=eastwest;" parent="UWN-dexHC-UgTUI-VArS-0" vertex="1">
                    <mxGeometry y="120" width="120" height="20" as="geometry"/>
                </mxCell>
                <mxCell id="UWN-dexHC-UgTUI-VArS-14" value="" style="shape=partialRectangle;connectable=0;fillColor=none;top=0;left=0;bottom=0;right=0;editable=1;overflow=hidden;fontStyle=1" parent="UWN-dexHC-UgTUI-VArS-13" vertex="1">
                    <mxGeometry width="30" height="20" as="geometry"/>
                </mxCell>
                <mxCell id="UWN-dexHC-UgTUI-VArS-15" value="link" style="shape=partialRectangle;connectable=0;fillColor=none;top=0;left=0;bottom=0;right=0;align=left;spacingLeft=6;overflow=hidden;" parent="UWN-dexHC-UgTUI-VArS-13" vertex="1">
                    <mxGeometry x="30" width="90" height="20" as="geometry"/>
                </mxCell>
                <mxCell id="UWN-dexHC-UgTUI-VArS-16" value="" style="shape=partialRectangle;collapsible=0;dropTarget=0;pointerEvents=0;fillColor=none;top=0;left=0;bottom=0;right=0;points=[[0,0.5],[1,0.5]];portConstraint=eastwest;" parent="UWN-dexHC-UgTUI-VArS-0" vertex="1">
                    <mxGeometry y="140" width="120" height="20" as="geometry"/>
                </mxCell>
                <mxCell id="UWN-dexHC-UgTUI-VArS-17" value="" style="shape=partialRectangle;connectable=0;fillColor=none;top=0;left=0;bottom=0;right=0;editable=1;overflow=hidden;fontStyle=1" parent="UWN-dexHC-UgTUI-VArS-16" vertex="1">
                    <mxGeometry width="30" height="20" as="geometry"/>
                </mxCell>
                <mxCell id="UWN-dexHC-UgTUI-VArS-18" value="status" style="shape=partialRectangle;connectable=0;fillColor=none;top=0;left=0;bottom=0;right=0;align=left;spacingLeft=6;overflow=hidden;" parent="UWN-dexHC-UgTUI-VArS-16" vertex="1">
                    <mxGeometry x="30" width="90" height="20" as="geometry"/>
                </mxCell>
                <mxCell id="UWN-dexHC-UgTUI-VArS-19" value="" style="shape=partialRectangle;collapsible=0;dropTarget=0;pointerEvents=0;fillColor=none;top=0;left=0;bottom=0;right=0;points=[[0,0.5],[1,0.5]];portConstraint=eastwest;" parent="UWN-dexHC-UgTUI-VArS-0" vertex="1">
                    <mxGeometry y="160" width="120" height="20" as="geometry"/>
                </mxCell>
                <mxCell id="UWN-dexHC-UgTUI-VArS-20" value="" style="shape=partialRectangle;connectable=0;fillColor=none;top=0;left=0;bottom=0;right=0;editable=1;overflow=hidden;" parent="UWN-dexHC-UgTUI-VArS-19" vertex="1">
                    <mxGeometry width="30" height="20" as="geometry"/>
                </mxCell>
                <mxCell id="UWN-dexHC-UgTUI-VArS-21" value="created_at" style="shape=partialRectangle;connectable=0;fillColor=none;top=0;left=0;bottom=0;right=0;align=left;spacingLeft=6;overflow=hidden;" parent="UWN-dexHC-UgTUI-VArS-19" vertex="1">
                    <mxGeometry x="30" width="90" height="20" as="geometry"/>
                </mxCell>
                <mxCell id="UWN-dexHC-UgTUI-VArS-22" value="" style="shape=partialRectangle;collapsible=0;dropTarget=0;pointerEvents=0;fillColor=none;top=0;left=0;bottom=0;right=0;points=[[0,0.5],[1,0.5]];portConstraint=eastwest;" parent="UWN-dexHC-UgTUI-VArS-0" vertex="1">
                    <mxGeometry y="180" width="120" height="20" as="geometry"/>
                </mxCell>
                <mxCell id="UWN-dexHC-UgTUI-VArS-23" value="" style="shape=partialRectangle;connectable=0;fillColor=none;top=0;left=0;bottom=0;right=0;editable=1;overflow=hidden;" parent="UWN-dexHC-UgTUI-VArS-22" vertex="1">
                    <mxGeometry width="30" height="20" as="geometry"/>
                </mxCell>
                <mxCell id="UWN-dexHC-UgTUI-VArS-24" value="updated_at" style="shape=partialRectangle;connectable=0;fillColor=none;top=0;left=0;bottom=0;right=0;align=left;spacingLeft=6;overflow=hidden;" parent="UWN-dexHC-UgTUI-VArS-22" vertex="1">
                    <mxGeometry x="30" width="90" height="20" as="geometry"/>
                </mxCell>
                <mxCell id="UWN-dexHC-UgTUI-VArS-25" value="" style="shape=partialRectangle;collapsible=0;dropTarget=0;pointerEvents=0;fillColor=none;top=0;left=0;bottom=0;right=0;points=[[0,0.5],[1,0.5]];portConstraint=eastwest;" parent="UWN-dexHC-UgTUI-VArS-0" vertex="1">
                    <mxGeometry y="200" width="120" height="20" as="geometry"/>
                </mxCell>
                <mxCell id="UWN-dexHC-UgTUI-VArS-26" value="" style="shape=partialRectangle;connectable=0;fillColor=none;top=0;left=0;bottom=0;right=0;editable=1;overflow=hidden;" parent="UWN-dexHC-UgTUI-VArS-25" vertex="1">
                    <mxGeometry width="30" height="20" as="geometry"/>
                </mxCell>
                <mxCell id="UWN-dexHC-UgTUI-VArS-27" value="deleted_at" style="shape=partialRectangle;connectable=0;fillColor=none;top=0;left=0;bottom=0;right=0;align=left;spacingLeft=6;overflow=hidden;" parent="UWN-dexHC-UgTUI-VArS-25" vertex="1">
                    <mxGeometry x="30" width="90" height="20" as="geometry"/>
                </mxCell>
                <mxCell id="oBdO33l2xRAbskP0kbQ2-0" value="comments" style="shape=table;startSize=30;container=1;collapsible=1;childLayout=tableLayout;fixedRows=1;rowLines=0;fontStyle=1;align=center;resizeLast=1;" parent="TchkiXIJ95gt_sCCpnTl-1" vertex="1">
                    <mxGeometry x="630" y="50" width="130" height="180" as="geometry"/>
                </mxCell>
                <mxCell id="oBdO33l2xRAbskP0kbQ2-1" value="" style="shape=partialRectangle;collapsible=0;dropTarget=0;pointerEvents=0;fillColor=none;top=0;left=0;bottom=1;right=0;points=[[0,0.5],[1,0.5]];portConstraint=eastwest;" parent="oBdO33l2xRAbskP0kbQ2-0" vertex="1">
                    <mxGeometry y="30" width="130" height="30" as="geometry"/>
                </mxCell>
                <mxCell id="oBdO33l2xRAbskP0kbQ2-2" value="PK" style="shape=partialRectangle;connectable=0;fillColor=none;top=0;left=0;bottom=0;right=0;fontStyle=1;overflow=hidden;" parent="oBdO33l2xRAbskP0kbQ2-1" vertex="1">
                    <mxGeometry width="30" height="30" as="geometry"/>
                </mxCell>
                <mxCell id="oBdO33l2xRAbskP0kbQ2-3" value="id" style="shape=partialRectangle;connectable=0;fillColor=none;top=0;left=0;bottom=0;right=0;align=left;spacingLeft=6;fontStyle=5;overflow=hidden;" parent="oBdO33l2xRAbskP0kbQ2-1" vertex="1">
                    <mxGeometry x="30" width="100" height="30" as="geometry"/>
                </mxCell>
                <mxCell id="oBdO33l2xRAbskP0kbQ2-4" value="" style="shape=partialRectangle;collapsible=0;dropTarget=0;pointerEvents=0;fillColor=none;top=0;left=0;bottom=0;right=0;points=[[0,0.5],[1,0.5]];portConstraint=eastwest;" parent="oBdO33l2xRAbskP0kbQ2-0" vertex="1">
                    <mxGeometry y="60" width="130" height="20" as="geometry"/>
                </mxCell>
                <mxCell id="oBdO33l2xRAbskP0kbQ2-5" value="FK" style="shape=partialRectangle;connectable=0;fillColor=none;top=0;left=0;bottom=0;right=0;editable=1;overflow=hidden;fontStyle=1" parent="oBdO33l2xRAbskP0kbQ2-4" vertex="1">
                    <mxGeometry width="30" height="20" as="geometry"/>
                </mxCell>
                <mxCell id="oBdO33l2xRAbskP0kbQ2-6" value="user_id" style="shape=partialRectangle;connectable=0;fillColor=none;top=0;left=0;bottom=0;right=0;align=left;spacingLeft=6;overflow=hidden;" parent="oBdO33l2xRAbskP0kbQ2-4" vertex="1">
                    <mxGeometry x="30" width="100" height="20" as="geometry"/>
                </mxCell>
                <mxCell id="oBdO33l2xRAbskP0kbQ2-7" value="" style="shape=partialRectangle;collapsible=0;dropTarget=0;pointerEvents=0;fillColor=none;top=0;left=0;bottom=0;right=0;points=[[0,0.5],[1,0.5]];portConstraint=eastwest;" parent="oBdO33l2xRAbskP0kbQ2-0" vertex="1">
                    <mxGeometry y="80" width="130" height="20" as="geometry"/>
                </mxCell>
                <mxCell id="oBdO33l2xRAbskP0kbQ2-8" value="FK" style="shape=partialRectangle;connectable=0;fillColor=none;top=0;left=0;bottom=0;right=0;editable=1;overflow=hidden;fontStyle=1" parent="oBdO33l2xRAbskP0kbQ2-7" vertex="1">
                    <mxGeometry width="30" height="20" as="geometry"/>
                </mxCell>
                <mxCell id="oBdO33l2xRAbskP0kbQ2-9" value="thread_id" style="shape=partialRectangle;connectable=0;fillColor=none;top=0;left=0;bottom=0;right=0;align=left;spacingLeft=6;overflow=hidden;" parent="oBdO33l2xRAbskP0kbQ2-7" vertex="1">
                    <mxGeometry x="30" width="100" height="20" as="geometry"/>
                </mxCell>
                <mxCell id="oBdO33l2xRAbskP0kbQ2-10" value="" style="shape=partialRectangle;collapsible=0;dropTarget=0;pointerEvents=0;fillColor=none;top=0;left=0;bottom=0;right=0;points=[[0,0.5],[1,0.5]];portConstraint=eastwest;" parent="oBdO33l2xRAbskP0kbQ2-0" vertex="1">
                    <mxGeometry y="100" width="130" height="20" as="geometry"/>
                </mxCell>
                <mxCell id="oBdO33l2xRAbskP0kbQ2-11" value="" style="shape=partialRectangle;connectable=0;fillColor=none;top=0;left=0;bottom=0;right=0;editable=1;overflow=hidden;" parent="oBdO33l2xRAbskP0kbQ2-10" vertex="1">
                    <mxGeometry width="30" height="20" as="geometry"/>
                </mxCell>
                <mxCell id="oBdO33l2xRAbskP0kbQ2-12" value="comment" style="shape=partialRectangle;connectable=0;fillColor=none;top=0;left=0;bottom=0;right=0;align=left;spacingLeft=6;overflow=hidden;" parent="oBdO33l2xRAbskP0kbQ2-10" vertex="1">
                    <mxGeometry x="30" width="100" height="20" as="geometry"/>
                </mxCell>
                <mxCell id="oBdO33l2xRAbskP0kbQ2-13" value="" style="shape=partialRectangle;collapsible=0;dropTarget=0;pointerEvents=0;fillColor=none;top=0;left=0;bottom=0;right=0;points=[[0,0.5],[1,0.5]];portConstraint=eastwest;" parent="oBdO33l2xRAbskP0kbQ2-0" vertex="1">
                    <mxGeometry y="120" width="130" height="20" as="geometry"/>
                </mxCell>
                <mxCell id="oBdO33l2xRAbskP0kbQ2-14" value="FK" style="shape=partialRectangle;connectable=0;fillColor=none;top=0;left=0;bottom=0;right=0;editable=1;overflow=hidden;fontStyle=1" parent="oBdO33l2xRAbskP0kbQ2-13" vertex="1">
                    <mxGeometry width="30" height="20" as="geometry"/>
                </mxCell>
                <mxCell id="oBdO33l2xRAbskP0kbQ2-15" value="deleted_by" style="shape=partialRectangle;connectable=0;fillColor=none;top=0;left=0;bottom=0;right=0;align=left;spacingLeft=6;overflow=hidden;" parent="oBdO33l2xRAbskP0kbQ2-13" vertex="1">
                    <mxGeometry x="30" width="100" height="20" as="geometry"/>
                </mxCell>
                <mxCell id="oBdO33l2xRAbskP0kbQ2-16" value="" style="shape=partialRectangle;collapsible=0;dropTarget=0;pointerEvents=0;fillColor=none;top=0;left=0;bottom=0;right=0;points=[[0,0.5],[1,0.5]];portConstraint=eastwest;" parent="oBdO33l2xRAbskP0kbQ2-0" vertex="1">
                    <mxGeometry y="140" width="130" height="20" as="geometry"/>
                </mxCell>
                <mxCell id="oBdO33l2xRAbskP0kbQ2-17" value="" style="shape=partialRectangle;connectable=0;fillColor=none;top=0;left=0;bottom=0;right=0;editable=1;overflow=hidden;" parent="oBdO33l2xRAbskP0kbQ2-16" vertex="1">
                    <mxGeometry width="30" height="20" as="geometry"/>
                </mxCell>
                <mxCell id="oBdO33l2xRAbskP0kbQ2-18" value="comment_date" style="shape=partialRectangle;connectable=0;fillColor=none;top=0;left=0;bottom=0;right=0;align=left;spacingLeft=6;overflow=hidden;" parent="oBdO33l2xRAbskP0kbQ2-16" vertex="1">
                    <mxGeometry x="30" width="100" height="20" as="geometry"/>
                </mxCell>
                <mxCell id="oBdO33l2xRAbskP0kbQ2-19" value="" style="shape=partialRectangle;collapsible=0;dropTarget=0;pointerEvents=0;fillColor=none;top=0;left=0;bottom=0;right=0;points=[[0,0.5],[1,0.5]];portConstraint=eastwest;" parent="oBdO33l2xRAbskP0kbQ2-0" vertex="1">
                    <mxGeometry y="160" width="130" height="20" as="geometry"/>
                </mxCell>
                <mxCell id="oBdO33l2xRAbskP0kbQ2-20" value="" style="shape=partialRectangle;connectable=0;fillColor=none;top=0;left=0;bottom=0;right=0;editable=1;overflow=hidden;" parent="oBdO33l2xRAbskP0kbQ2-19" vertex="1">
                    <mxGeometry width="30" height="20" as="geometry"/>
                </mxCell>
                <mxCell id="oBdO33l2xRAbskP0kbQ2-21" value="deleted_at" style="shape=partialRectangle;connectable=0;fillColor=none;top=0;left=0;bottom=0;right=0;align=left;spacingLeft=6;overflow=hidden;" parent="oBdO33l2xRAbskP0kbQ2-19" vertex="1">
                    <mxGeometry x="30" width="100" height="20" as="geometry"/>
                </mxCell>
                <mxCell id="oBdO33l2xRAbskP0kbQ2-22" value="" style="edgeStyle=entityRelationEdgeStyle;fontSize=12;html=1;endArrow=ERoneToMany;" parent="TchkiXIJ95gt_sCCpnTl-1" source="UWN-dexHC-UgTUI-VArS-1" target="oBdO33l2xRAbskP0kbQ2-7" edge="1">
                    <mxGeometry width="100" height="100" relative="1" as="geometry">
                        <mxPoint x="500" y="290" as="sourcePoint"/>
                        <mxPoint x="600" y="190" as="targetPoint"/>
                    </mxGeometry>
                </mxCell>
                <mxCell id="oBdO33l2xRAbskP0kbQ2-23" value="" style="edgeStyle=entityRelationEdgeStyle;fontSize=12;html=1;endArrow=ERmandOne;startArrow=ERmandOne;" parent="TchkiXIJ95gt_sCCpnTl-1" source="OusGNvMnw1ku1Nts1Jbt-1" target="UWN-dexHC-UgTUI-VArS-7" edge="1">
                    <mxGeometry width="100" height="100" relative="1" as="geometry">
                        <mxPoint x="470" y="300" as="sourcePoint"/>
                        <mxPoint x="570" y="200" as="targetPoint"/>
                    </mxGeometry>
                </mxCell>
                <mxCell id="oBdO33l2xRAbskP0kbQ2-24" value="" style="edgeStyle=entityRelationEdgeStyle;fontSize=12;html=1;endArrow=ERmandOne;startArrow=ERmandOne;" parent="TchkiXIJ95gt_sCCpnTl-1" source="OusGNvMnw1ku1Nts1Jbt-1" target="oBdO33l2xRAbskP0kbQ2-13" edge="1">
                    <mxGeometry width="100" height="100" relative="1" as="geometry">
                        <mxPoint x="620" y="350" as="sourcePoint"/>
                        <mxPoint x="720" y="250" as="targetPoint"/>
                    </mxGeometry>
                </mxCell>
                <mxCell id="Dr3Bao2wZgOQ-Qx6c-rn-0" value="sliders" style="shape=table;startSize=30;container=1;collapsible=1;childLayout=tableLayout;fixedRows=1;rowLines=0;fontStyle=1;align=center;resizeLast=1;" parent="TchkiXIJ95gt_sCCpnTl-1" vertex="1">
                    <mxGeometry x="250" y="350" width="120" height="200" as="geometry"/>
                </mxCell>
                <mxCell id="Dr3Bao2wZgOQ-Qx6c-rn-1" value="" style="shape=partialRectangle;collapsible=0;dropTarget=0;pointerEvents=0;fillColor=none;top=0;left=0;bottom=1;right=0;points=[[0,0.5],[1,0.5]];portConstraint=eastwest;" parent="Dr3Bao2wZgOQ-Qx6c-rn-0" vertex="1">
                    <mxGeometry y="30" width="120" height="30" as="geometry"/>
                </mxCell>
                <mxCell id="Dr3Bao2wZgOQ-Qx6c-rn-2" value="PK" style="shape=partialRectangle;connectable=0;fillColor=none;top=0;left=0;bottom=0;right=0;fontStyle=1;overflow=hidden;" parent="Dr3Bao2wZgOQ-Qx6c-rn-1" vertex="1">
                    <mxGeometry width="30" height="30" as="geometry"/>
                </mxCell>
                <mxCell id="Dr3Bao2wZgOQ-Qx6c-rn-3" value="id" style="shape=partialRectangle;connectable=0;fillColor=none;top=0;left=0;bottom=0;right=0;align=left;spacingLeft=6;fontStyle=5;overflow=hidden;" parent="Dr3Bao2wZgOQ-Qx6c-rn-1" vertex="1">
                    <mxGeometry x="30" width="90" height="30" as="geometry"/>
                </mxCell>
                <mxCell id="Dr3Bao2wZgOQ-Qx6c-rn-4" value="" style="shape=partialRectangle;collapsible=0;dropTarget=0;pointerEvents=0;fillColor=none;top=0;left=0;bottom=0;right=0;points=[[0,0.5],[1,0.5]];portConstraint=eastwest;" parent="Dr3Bao2wZgOQ-Qx6c-rn-0" vertex="1">
                    <mxGeometry y="60" width="120" height="20" as="geometry"/>
                </mxCell>
                <mxCell id="Dr3Bao2wZgOQ-Qx6c-rn-5" value="" style="shape=partialRectangle;connectable=0;fillColor=none;top=0;left=0;bottom=0;right=0;editable=1;overflow=hidden;" parent="Dr3Bao2wZgOQ-Qx6c-rn-4" vertex="1">
                    <mxGeometry width="30" height="20" as="geometry"/>
                </mxCell>
                <mxCell id="Dr3Bao2wZgOQ-Qx6c-rn-6" value="title" style="shape=partialRectangle;connectable=0;fillColor=none;top=0;left=0;bottom=0;right=0;align=left;spacingLeft=6;overflow=hidden;" parent="Dr3Bao2wZgOQ-Qx6c-rn-4" vertex="1">
                    <mxGeometry x="30" width="90" height="20" as="geometry"/>
                </mxCell>
                <mxCell id="Dr3Bao2wZgOQ-Qx6c-rn-7" value="" style="shape=partialRectangle;collapsible=0;dropTarget=0;pointerEvents=0;fillColor=none;top=0;left=0;bottom=0;right=0;points=[[0,0.5],[1,0.5]];portConstraint=eastwest;" parent="Dr3Bao2wZgOQ-Qx6c-rn-0" vertex="1">
                    <mxGeometry y="80" width="120" height="20" as="geometry"/>
                </mxCell>
                <mxCell id="Dr3Bao2wZgOQ-Qx6c-rn-8" value="" style="shape=partialRectangle;connectable=0;fillColor=none;top=0;left=0;bottom=0;right=0;editable=1;overflow=hidden;" parent="Dr3Bao2wZgOQ-Qx6c-rn-7" vertex="1">
                    <mxGeometry width="30" height="20" as="geometry"/>
                </mxCell>
                <mxCell id="Dr3Bao2wZgOQ-Qx6c-rn-9" value="image" style="shape=partialRectangle;connectable=0;fillColor=none;top=0;left=0;bottom=0;right=0;align=left;spacingLeft=6;overflow=hidden;" parent="Dr3Bao2wZgOQ-Qx6c-rn-7" vertex="1">
                    <mxGeometry x="30" width="90" height="20" as="geometry"/>
                </mxCell>
                <mxCell id="Dr3Bao2wZgOQ-Qx6c-rn-10" value="" style="shape=partialRectangle;collapsible=0;dropTarget=0;pointerEvents=0;fillColor=none;top=0;left=0;bottom=0;right=0;points=[[0,0.5],[1,0.5]];portConstraint=eastwest;" parent="Dr3Bao2wZgOQ-Qx6c-rn-0" vertex="1">
                    <mxGeometry y="100" width="120" height="20" as="geometry"/>
                </mxCell>
                <mxCell id="Dr3Bao2wZgOQ-Qx6c-rn-11" value="" style="shape=partialRectangle;connectable=0;fillColor=none;top=0;left=0;bottom=0;right=0;editable=1;overflow=hidden;" parent="Dr3Bao2wZgOQ-Qx6c-rn-10" vertex="1">
                    <mxGeometry width="30" height="20" as="geometry"/>
                </mxCell>
                <mxCell id="Dr3Bao2wZgOQ-Qx6c-rn-12" value="description" style="shape=partialRectangle;connectable=0;fillColor=none;top=0;left=0;bottom=0;right=0;align=left;spacingLeft=6;overflow=hidden;" parent="Dr3Bao2wZgOQ-Qx6c-rn-10" vertex="1">
                    <mxGeometry x="30" width="90" height="20" as="geometry"/>
                </mxCell>
                <mxCell id="Dr3Bao2wZgOQ-Qx6c-rn-13" value="" style="shape=partialRectangle;collapsible=0;dropTarget=0;pointerEvents=0;fillColor=none;top=0;left=0;bottom=0;right=0;points=[[0,0.5],[1,0.5]];portConstraint=eastwest;" parent="Dr3Bao2wZgOQ-Qx6c-rn-0" vertex="1">
                    <mxGeometry y="120" width="120" height="20" as="geometry"/>
                </mxCell>
                <mxCell id="Dr3Bao2wZgOQ-Qx6c-rn-14" value="FK" style="shape=partialRectangle;connectable=0;fillColor=none;top=0;left=0;bottom=0;right=0;editable=1;overflow=hidden;fontStyle=1" parent="Dr3Bao2wZgOQ-Qx6c-rn-13" vertex="1">
                    <mxGeometry width="30" height="20" as="geometry"/>
                </mxCell>
                <mxCell id="Dr3Bao2wZgOQ-Qx6c-rn-15" value="uploader" style="shape=partialRectangle;connectable=0;fillColor=none;top=0;left=0;bottom=0;right=0;align=left;spacingLeft=6;overflow=hidden;" parent="Dr3Bao2wZgOQ-Qx6c-rn-13" vertex="1">
                    <mxGeometry x="30" width="90" height="20" as="geometry"/>
                </mxCell>
                <mxCell id="Dr3Bao2wZgOQ-Qx6c-rn-16" value="" style="shape=partialRectangle;collapsible=0;dropTarget=0;pointerEvents=0;fillColor=none;top=0;left=0;bottom=0;right=0;points=[[0,0.5],[1,0.5]];portConstraint=eastwest;" parent="Dr3Bao2wZgOQ-Qx6c-rn-0" vertex="1">
                    <mxGeometry y="140" width="120" height="20" as="geometry"/>
                </mxCell>
                <mxCell id="Dr3Bao2wZgOQ-Qx6c-rn-17" value="" style="shape=partialRectangle;connectable=0;fillColor=none;top=0;left=0;bottom=0;right=0;editable=1;overflow=hidden;" parent="Dr3Bao2wZgOQ-Qx6c-rn-16" vertex="1">
                    <mxGeometry width="30" height="20" as="geometry"/>
                </mxCell>
                <mxCell id="Dr3Bao2wZgOQ-Qx6c-rn-18" value="created_at" style="shape=partialRectangle;connectable=0;fillColor=none;top=0;left=0;bottom=0;right=0;align=left;spacingLeft=6;overflow=hidden;" parent="Dr3Bao2wZgOQ-Qx6c-rn-16" vertex="1">
                    <mxGeometry x="30" width="90" height="20" as="geometry"/>
                </mxCell>
                <mxCell id="Dr3Bao2wZgOQ-Qx6c-rn-19" value="" style="shape=partialRectangle;collapsible=0;dropTarget=0;pointerEvents=0;fillColor=none;top=0;left=0;bottom=0;right=0;points=[[0,0.5],[1,0.5]];portConstraint=eastwest;" parent="Dr3Bao2wZgOQ-Qx6c-rn-0" vertex="1">
                    <mxGeometry y="160" width="120" height="20" as="geometry"/>
                </mxCell>
                <mxCell id="Dr3Bao2wZgOQ-Qx6c-rn-20" value="" style="shape=partialRectangle;connectable=0;fillColor=none;top=0;left=0;bottom=0;right=0;editable=1;overflow=hidden;" parent="Dr3Bao2wZgOQ-Qx6c-rn-19" vertex="1">
                    <mxGeometry width="30" height="20" as="geometry"/>
                </mxCell>
                <mxCell id="Dr3Bao2wZgOQ-Qx6c-rn-21" value="updated_at" style="shape=partialRectangle;connectable=0;fillColor=none;top=0;left=0;bottom=0;right=0;align=left;spacingLeft=6;overflow=hidden;" parent="Dr3Bao2wZgOQ-Qx6c-rn-19" vertex="1">
                    <mxGeometry x="30" width="90" height="20" as="geometry"/>
                </mxCell>
                <mxCell id="Dr3Bao2wZgOQ-Qx6c-rn-22" value="" style="shape=partialRectangle;collapsible=0;dropTarget=0;pointerEvents=0;fillColor=none;top=0;left=0;bottom=0;right=0;points=[[0,0.5],[1,0.5]];portConstraint=eastwest;" parent="Dr3Bao2wZgOQ-Qx6c-rn-0" vertex="1">
                    <mxGeometry y="180" width="120" height="20" as="geometry"/>
                </mxCell>
                <mxCell id="Dr3Bao2wZgOQ-Qx6c-rn-23" value="" style="shape=partialRectangle;connectable=0;fillColor=none;top=0;left=0;bottom=0;right=0;editable=1;overflow=hidden;" parent="Dr3Bao2wZgOQ-Qx6c-rn-22" vertex="1">
                    <mxGeometry width="30" height="20" as="geometry"/>
                </mxCell>
                <mxCell id="Dr3Bao2wZgOQ-Qx6c-rn-24" value="deleted_at" style="shape=partialRectangle;connectable=0;fillColor=none;top=0;left=0;bottom=0;right=0;align=left;spacingLeft=6;overflow=hidden;" parent="Dr3Bao2wZgOQ-Qx6c-rn-22" vertex="1">
                    <mxGeometry x="30" width="90" height="20" as="geometry"/>
                </mxCell>
                <mxCell id="Dr3Bao2wZgOQ-Qx6c-rn-26" value="" style="edgeStyle=entityRelationEdgeStyle;fontSize=12;html=1;endArrow=ERmany;startArrow=ERmany;" parent="TchkiXIJ95gt_sCCpnTl-1" source="Dr3Bao2wZgOQ-Qx6c-rn-13" target="OusGNvMnw1ku1Nts1Jbt-1" edge="1">
                    <mxGeometry width="100" height="100" relative="1" as="geometry">
                        <mxPoint x="160" y="270" as="sourcePoint"/>
                        <mxPoint x="260" y="170" as="targetPoint"/>
                    </mxGeometry>
                </mxCell>
                <mxCell id="ntqjqAP9EhViiggwBP5G-0" value="announcements" style="shape=table;startSize=30;container=1;collapsible=1;childLayout=tableLayout;fixedRows=1;rowLines=0;fontStyle=1;align=center;resizeLast=1;" parent="TchkiXIJ95gt_sCCpnTl-1" vertex="1">
                    <mxGeometry x="250" y="570" width="120" height="220" as="geometry">
                        <mxRectangle x="400" y="615" width="120" height="30" as="alternateBounds"/>
                    </mxGeometry>
                </mxCell>
                <mxCell id="ntqjqAP9EhViiggwBP5G-1" value="" style="shape=partialRectangle;collapsible=0;dropTarget=0;pointerEvents=0;fillColor=none;top=0;left=0;bottom=1;right=0;points=[[0,0.5],[1,0.5]];portConstraint=eastwest;" parent="ntqjqAP9EhViiggwBP5G-0" vertex="1">
                    <mxGeometry y="30" width="120" height="30" as="geometry"/>
                </mxCell>
                <mxCell id="ntqjqAP9EhViiggwBP5G-2" value="PK" style="shape=partialRectangle;connectable=0;fillColor=none;top=0;left=0;bottom=0;right=0;fontStyle=1;overflow=hidden;" parent="ntqjqAP9EhViiggwBP5G-1" vertex="1">
                    <mxGeometry width="30" height="30" as="geometry"/>
                </mxCell>
                <mxCell id="ntqjqAP9EhViiggwBP5G-3" value="id" style="shape=partialRectangle;connectable=0;fillColor=none;top=0;left=0;bottom=0;right=0;align=left;spacingLeft=6;fontStyle=5;overflow=hidden;" parent="ntqjqAP9EhViiggwBP5G-1" vertex="1">
                    <mxGeometry x="30" width="90" height="30" as="geometry"/>
                </mxCell>
                <mxCell id="ntqjqAP9EhViiggwBP5G-4" value="" style="shape=partialRectangle;collapsible=0;dropTarget=0;pointerEvents=0;fillColor=none;top=0;left=0;bottom=0;right=0;points=[[0,0.5],[1,0.5]];portConstraint=eastwest;" parent="ntqjqAP9EhViiggwBP5G-0" vertex="1">
                    <mxGeometry y="60" width="120" height="20" as="geometry"/>
                </mxCell>
                <mxCell id="ntqjqAP9EhViiggwBP5G-5" value="" style="shape=partialRectangle;connectable=0;fillColor=none;top=0;left=0;bottom=0;right=0;editable=1;overflow=hidden;" parent="ntqjqAP9EhViiggwBP5G-4" vertex="1">
                    <mxGeometry width="30" height="20" as="geometry"/>
                </mxCell>
                <mxCell id="ntqjqAP9EhViiggwBP5G-6" value="title" style="shape=partialRectangle;connectable=0;fillColor=none;top=0;left=0;bottom=0;right=0;align=left;spacingLeft=6;overflow=hidden;" parent="ntqjqAP9EhViiggwBP5G-4" vertex="1">
                    <mxGeometry x="30" width="90" height="20" as="geometry"/>
                </mxCell>
                <mxCell id="ntqjqAP9EhViiggwBP5G-7" value="" style="shape=partialRectangle;collapsible=0;dropTarget=0;pointerEvents=0;fillColor=none;top=0;left=0;bottom=0;right=0;points=[[0,0.5],[1,0.5]];portConstraint=eastwest;" parent="ntqjqAP9EhViiggwBP5G-0" vertex="1">
                    <mxGeometry y="80" width="120" height="20" as="geometry"/>
                </mxCell>
                <mxCell id="ntqjqAP9EhViiggwBP5G-8" value="" style="shape=partialRectangle;connectable=0;fillColor=none;top=0;left=0;bottom=0;right=0;editable=1;overflow=hidden;" parent="ntqjqAP9EhViiggwBP5G-7" vertex="1">
                    <mxGeometry width="30" height="20" as="geometry"/>
                </mxCell>
                <mxCell id="ntqjqAP9EhViiggwBP5G-9" value="image" style="shape=partialRectangle;connectable=0;fillColor=none;top=0;left=0;bottom=0;right=0;align=left;spacingLeft=6;overflow=hidden;" parent="ntqjqAP9EhViiggwBP5G-7" vertex="1">
                    <mxGeometry x="30" width="90" height="20" as="geometry"/>
                </mxCell>
                <mxCell id="ntqjqAP9EhViiggwBP5G-10" value="" style="shape=partialRectangle;collapsible=0;dropTarget=0;pointerEvents=0;fillColor=none;top=0;left=0;bottom=0;right=0;points=[[0,0.5],[1,0.5]];portConstraint=eastwest;" parent="ntqjqAP9EhViiggwBP5G-0" vertex="1">
                    <mxGeometry y="100" width="120" height="20" as="geometry"/>
                </mxCell>
                <mxCell id="ntqjqAP9EhViiggwBP5G-11" value="" style="shape=partialRectangle;connectable=0;fillColor=none;top=0;left=0;bottom=0;right=0;editable=1;overflow=hidden;" parent="ntqjqAP9EhViiggwBP5G-10" vertex="1">
                    <mxGeometry width="30" height="20" as="geometry"/>
                </mxCell>
                <mxCell id="ntqjqAP9EhViiggwBP5G-12" value="description" style="shape=partialRectangle;connectable=0;fillColor=none;top=0;left=0;bottom=0;right=0;align=left;spacingLeft=6;overflow=hidden;" parent="ntqjqAP9EhViiggwBP5G-10" vertex="1">
                    <mxGeometry x="30" width="90" height="20" as="geometry"/>
                </mxCell>
                <mxCell id="ntqjqAP9EhViiggwBP5G-13" value="" style="shape=partialRectangle;collapsible=0;dropTarget=0;pointerEvents=0;fillColor=none;top=0;left=0;bottom=0;right=0;points=[[0,0.5],[1,0.5]];portConstraint=eastwest;" parent="ntqjqAP9EhViiggwBP5G-0" vertex="1">
                    <mxGeometry y="120" width="120" height="20" as="geometry"/>
                </mxCell>
                <mxCell id="ntqjqAP9EhViiggwBP5G-14" value="FK" style="shape=partialRectangle;connectable=0;fillColor=none;top=0;left=0;bottom=0;right=0;editable=1;overflow=hidden;fontStyle=1" parent="ntqjqAP9EhViiggwBP5G-13" vertex="1">
                    <mxGeometry width="30" height="20" as="geometry"/>
                </mxCell>
                <mxCell id="ntqjqAP9EhViiggwBP5G-15" value="uploader" style="shape=partialRectangle;connectable=0;fillColor=none;top=0;left=0;bottom=0;right=0;align=left;spacingLeft=6;overflow=hidden;" parent="ntqjqAP9EhViiggwBP5G-13" vertex="1">
                    <mxGeometry x="30" width="90" height="20" as="geometry"/>
                </mxCell>
                <mxCell id="ntqjqAP9EhViiggwBP5G-16" value="" style="shape=partialRectangle;collapsible=0;dropTarget=0;pointerEvents=0;fillColor=none;top=0;left=0;bottom=0;right=0;points=[[0,0.5],[1,0.5]];portConstraint=eastwest;" parent="ntqjqAP9EhViiggwBP5G-0" vertex="1">
                    <mxGeometry y="140" width="120" height="20" as="geometry"/>
                </mxCell>
                <mxCell id="ntqjqAP9EhViiggwBP5G-17" value="" style="shape=partialRectangle;connectable=0;fillColor=none;top=0;left=0;bottom=0;right=0;editable=1;overflow=hidden;fontStyle=1" parent="ntqjqAP9EhViiggwBP5G-16" vertex="1">
                    <mxGeometry width="30" height="20" as="geometry"/>
                </mxCell>
                <mxCell id="ntqjqAP9EhViiggwBP5G-18" value="link" style="shape=partialRectangle;connectable=0;fillColor=none;top=0;left=0;bottom=0;right=0;align=left;spacingLeft=6;overflow=hidden;" parent="ntqjqAP9EhViiggwBP5G-16" vertex="1">
                    <mxGeometry x="30" width="90" height="20" as="geometry"/>
                </mxCell>
                <mxCell id="ntqjqAP9EhViiggwBP5G-19" value="" style="shape=partialRectangle;collapsible=0;dropTarget=0;pointerEvents=0;fillColor=none;top=0;left=0;bottom=0;right=0;points=[[0,0.5],[1,0.5]];portConstraint=eastwest;" parent="ntqjqAP9EhViiggwBP5G-0" vertex="1">
                    <mxGeometry y="160" width="120" height="20" as="geometry"/>
                </mxCell>
                <mxCell id="ntqjqAP9EhViiggwBP5G-20" value="" style="shape=partialRectangle;connectable=0;fillColor=none;top=0;left=0;bottom=0;right=0;editable=1;overflow=hidden;" parent="ntqjqAP9EhViiggwBP5G-19" vertex="1">
                    <mxGeometry width="30" height="20" as="geometry"/>
                </mxCell>
                <mxCell id="ntqjqAP9EhViiggwBP5G-21" value="created_at" style="shape=partialRectangle;connectable=0;fillColor=none;top=0;left=0;bottom=0;right=0;align=left;spacingLeft=6;overflow=hidden;" parent="ntqjqAP9EhViiggwBP5G-19" vertex="1">
                    <mxGeometry x="30" width="90" height="20" as="geometry"/>
                </mxCell>
                <mxCell id="ntqjqAP9EhViiggwBP5G-22" value="" style="shape=partialRectangle;collapsible=0;dropTarget=0;pointerEvents=0;fillColor=none;top=0;left=0;bottom=0;right=0;points=[[0,0.5],[1,0.5]];portConstraint=eastwest;" parent="ntqjqAP9EhViiggwBP5G-0" vertex="1">
                    <mxGeometry y="180" width="120" height="20" as="geometry"/>
                </mxCell>
                <mxCell id="ntqjqAP9EhViiggwBP5G-23" value="" style="shape=partialRectangle;connectable=0;fillColor=none;top=0;left=0;bottom=0;right=0;editable=1;overflow=hidden;" parent="ntqjqAP9EhViiggwBP5G-22" vertex="1">
                    <mxGeometry width="30" height="20" as="geometry"/>
                </mxCell>
                <mxCell id="ntqjqAP9EhViiggwBP5G-24" value="updated_at" style="shape=partialRectangle;connectable=0;fillColor=none;top=0;left=0;bottom=0;right=0;align=left;spacingLeft=6;overflow=hidden;" parent="ntqjqAP9EhViiggwBP5G-22" vertex="1">
                    <mxGeometry x="30" width="90" height="20" as="geometry"/>
                </mxCell>
                <mxCell id="ntqjqAP9EhViiggwBP5G-25" value="" style="shape=partialRectangle;collapsible=0;dropTarget=0;pointerEvents=0;fillColor=none;top=0;left=0;bottom=0;right=0;points=[[0,0.5],[1,0.5]];portConstraint=eastwest;" parent="ntqjqAP9EhViiggwBP5G-0" vertex="1">
                    <mxGeometry y="200" width="120" height="20" as="geometry"/>
                </mxCell>
                <mxCell id="ntqjqAP9EhViiggwBP5G-26" value="" style="shape=partialRectangle;connectable=0;fillColor=none;top=0;left=0;bottom=0;right=0;editable=1;overflow=hidden;" parent="ntqjqAP9EhViiggwBP5G-25" vertex="1">
                    <mxGeometry width="30" height="20" as="geometry"/>
                </mxCell>
                <mxCell id="ntqjqAP9EhViiggwBP5G-27" value="deleted_at" style="shape=partialRectangle;connectable=0;fillColor=none;top=0;left=0;bottom=0;right=0;align=left;spacingLeft=6;overflow=hidden;" parent="ntqjqAP9EhViiggwBP5G-25" vertex="1">
                    <mxGeometry x="30" width="90" height="20" as="geometry"/>
                </mxCell>
                <mxCell id="fpP2IbZNrY9uJ29WWO8n-0" value="" style="edgeStyle=entityRelationEdgeStyle;fontSize=12;html=1;endArrow=ERmany;startArrow=ERmany;" parent="TchkiXIJ95gt_sCCpnTl-1" source="ntqjqAP9EhViiggwBP5G-13" target="OusGNvMnw1ku1Nts1Jbt-1" edge="1">
                    <mxGeometry width="100" height="100" relative="1" as="geometry">
                        <mxPoint x="410" y="900" as="sourcePoint"/>
                        <mxPoint x="510" y="800" as="targetPoint"/>
                    </mxGeometry>
                </mxCell>
                <mxCell id="fpP2IbZNrY9uJ29WWO8n-1" value="activity_log" style="shape=table;startSize=30;container=1;collapsible=1;childLayout=tableLayout;fixedRows=1;rowLines=0;fontStyle=1;align=center;resizeLast=1;" parent="TchkiXIJ95gt_sCCpnTl-1" vertex="1">
                    <mxGeometry x="70" y="490" width="120" height="160" as="geometry">
                        <mxRectangle x="400" y="615" width="120" height="30" as="alternateBounds"/>
                    </mxGeometry>
                </mxCell>
                <mxCell id="fpP2IbZNrY9uJ29WWO8n-2" value="" style="shape=partialRectangle;collapsible=0;dropTarget=0;pointerEvents=0;fillColor=none;top=0;left=0;bottom=1;right=0;points=[[0,0.5],[1,0.5]];portConstraint=eastwest;" parent="fpP2IbZNrY9uJ29WWO8n-1" vertex="1">
                    <mxGeometry y="30" width="120" height="30" as="geometry"/>
                </mxCell>
                <mxCell id="fpP2IbZNrY9uJ29WWO8n-3" value="PK" style="shape=partialRectangle;connectable=0;fillColor=none;top=0;left=0;bottom=0;right=0;fontStyle=1;overflow=hidden;" parent="fpP2IbZNrY9uJ29WWO8n-2" vertex="1">
                    <mxGeometry width="30" height="30" as="geometry"/>
                </mxCell>
                <mxCell id="fpP2IbZNrY9uJ29WWO8n-4" value="id" style="shape=partialRectangle;connectable=0;fillColor=none;top=0;left=0;bottom=0;right=0;align=left;spacingLeft=6;fontStyle=5;overflow=hidden;" parent="fpP2IbZNrY9uJ29WWO8n-2" vertex="1">
                    <mxGeometry x="30" width="90" height="30" as="geometry"/>
                </mxCell>
                <mxCell id="fpP2IbZNrY9uJ29WWO8n-5" value="" style="shape=partialRectangle;collapsible=0;dropTarget=0;pointerEvents=0;fillColor=none;top=0;left=0;bottom=0;right=0;points=[[0,0.5],[1,0.5]];portConstraint=eastwest;" parent="fpP2IbZNrY9uJ29WWO8n-1" vertex="1">
                    <mxGeometry y="60" width="120" height="20" as="geometry"/>
                </mxCell>
                <mxCell id="fpP2IbZNrY9uJ29WWO8n-6" value="FK" style="shape=partialRectangle;connectable=0;fillColor=none;top=0;left=0;bottom=0;right=0;editable=1;overflow=hidden;fontStyle=1" parent="fpP2IbZNrY9uJ29WWO8n-5" vertex="1">
                    <mxGeometry width="30" height="20" as="geometry"/>
                </mxCell>
                <mxCell id="fpP2IbZNrY9uJ29WWO8n-7" value="user" style="shape=partialRectangle;connectable=0;fillColor=none;top=0;left=0;bottom=0;right=0;align=left;spacingLeft=6;overflow=hidden;" parent="fpP2IbZNrY9uJ29WWO8n-5" vertex="1">
                    <mxGeometry x="30" width="90" height="20" as="geometry"/>
                </mxCell>
                <mxCell id="fpP2IbZNrY9uJ29WWO8n-8" value="" style="shape=partialRectangle;collapsible=0;dropTarget=0;pointerEvents=0;fillColor=none;top=0;left=0;bottom=0;right=0;points=[[0,0.5],[1,0.5]];portConstraint=eastwest;" parent="fpP2IbZNrY9uJ29WWO8n-1" vertex="1">
                    <mxGeometry y="80" width="120" height="20" as="geometry"/>
                </mxCell>
                <mxCell id="fpP2IbZNrY9uJ29WWO8n-9" value="" style="shape=partialRectangle;connectable=0;fillColor=none;top=0;left=0;bottom=0;right=0;editable=1;overflow=hidden;fontStyle=1" parent="fpP2IbZNrY9uJ29WWO8n-8" vertex="1">
                    <mxGeometry width="30" height="20" as="geometry"/>
                </mxCell>
                <mxCell id="fpP2IbZNrY9uJ29WWO8n-10" value="description" style="shape=partialRectangle;connectable=0;fillColor=none;top=0;left=0;bottom=0;right=0;align=left;spacingLeft=6;overflow=hidden;" parent="fpP2IbZNrY9uJ29WWO8n-8" vertex="1">
                    <mxGeometry x="30" width="90" height="20" as="geometry"/>
                </mxCell>
                <mxCell id="fpP2IbZNrY9uJ29WWO8n-11" value="" style="shape=partialRectangle;collapsible=0;dropTarget=0;pointerEvents=0;fillColor=none;top=0;left=0;bottom=0;right=0;points=[[0,0.5],[1,0.5]];portConstraint=eastwest;" parent="fpP2IbZNrY9uJ29WWO8n-1" vertex="1">
                    <mxGeometry y="100" width="120" height="20" as="geometry"/>
                </mxCell>
                <mxCell id="fpP2IbZNrY9uJ29WWO8n-12" value="" style="shape=partialRectangle;connectable=0;fillColor=none;top=0;left=0;bottom=0;right=0;editable=1;overflow=hidden;" parent="fpP2IbZNrY9uJ29WWO8n-11" vertex="1">
                    <mxGeometry width="30" height="20" as="geometry"/>
                </mxCell>
                <mxCell id="fpP2IbZNrY9uJ29WWO8n-13" value="created_at" style="shape=partialRectangle;connectable=0;fillColor=none;top=0;left=0;bottom=0;right=0;align=left;spacingLeft=6;overflow=hidden;" parent="fpP2IbZNrY9uJ29WWO8n-11" vertex="1">
                    <mxGeometry x="30" width="90" height="20" as="geometry"/>
                </mxCell>
                <mxCell id="fpP2IbZNrY9uJ29WWO8n-14" value="" style="shape=partialRectangle;collapsible=0;dropTarget=0;pointerEvents=0;fillColor=none;top=0;left=0;bottom=0;right=0;points=[[0,0.5],[1,0.5]];portConstraint=eastwest;" parent="fpP2IbZNrY9uJ29WWO8n-1" vertex="1">
                    <mxGeometry y="120" width="120" height="20" as="geometry"/>
                </mxCell>
                <mxCell id="fpP2IbZNrY9uJ29WWO8n-15" value="" style="shape=partialRectangle;connectable=0;fillColor=none;top=0;left=0;bottom=0;right=0;editable=1;overflow=hidden;" parent="fpP2IbZNrY9uJ29WWO8n-14" vertex="1">
                    <mxGeometry width="30" height="20" as="geometry"/>
                </mxCell>
                <mxCell id="fpP2IbZNrY9uJ29WWO8n-16" value="updated_at" style="shape=partialRectangle;connectable=0;fillColor=none;top=0;left=0;bottom=0;right=0;align=left;spacingLeft=6;overflow=hidden;" parent="fpP2IbZNrY9uJ29WWO8n-14" vertex="1">
                    <mxGeometry x="30" width="90" height="20" as="geometry"/>
                </mxCell>
                <mxCell id="fpP2IbZNrY9uJ29WWO8n-17" value="" style="shape=partialRectangle;collapsible=0;dropTarget=0;pointerEvents=0;fillColor=none;top=0;left=0;bottom=0;right=0;points=[[0,0.5],[1,0.5]];portConstraint=eastwest;" parent="fpP2IbZNrY9uJ29WWO8n-1" vertex="1">
                    <mxGeometry y="140" width="120" height="20" as="geometry"/>
                </mxCell>
                <mxCell id="fpP2IbZNrY9uJ29WWO8n-18" value="" style="shape=partialRectangle;connectable=0;fillColor=none;top=0;left=0;bottom=0;right=0;editable=1;overflow=hidden;" parent="fpP2IbZNrY9uJ29WWO8n-17" vertex="1">
                    <mxGeometry width="30" height="20" as="geometry"/>
                </mxCell>
                <mxCell id="fpP2IbZNrY9uJ29WWO8n-19" value="deleted_at" style="shape=partialRectangle;connectable=0;fillColor=none;top=0;left=0;bottom=0;right=0;align=left;spacingLeft=6;overflow=hidden;" parent="fpP2IbZNrY9uJ29WWO8n-17" vertex="1">
                    <mxGeometry x="30" width="90" height="20" as="geometry"/>
                </mxCell>
                <mxCell id="fpP2IbZNrY9uJ29WWO8n-22" value="" style="edgeStyle=entityRelationEdgeStyle;fontSize=12;html=1;endArrow=ERoneToMany;exitX=0;exitY=0.5;exitDx=0;exitDy=0;" parent="TchkiXIJ95gt_sCCpnTl-1" source="OusGNvMnw1ku1Nts1Jbt-25" target="fpP2IbZNrY9uJ29WWO8n-5" edge="1">
                    <mxGeometry width="100" height="100" relative="1" as="geometry">
                        <mxPoint x="70" y="430" as="sourcePoint"/>
                        <mxPoint x="170" y="330" as="targetPoint"/>
                    </mxGeometry>
                </mxCell>
                <mxCell id="fpP2IbZNrY9uJ29WWO8n-23" value="candidates" style="shape=table;startSize=30;container=1;collapsible=1;childLayout=tableLayout;fixedRows=1;rowLines=0;fontStyle=1;align=center;resizeLast=1;" parent="TchkiXIJ95gt_sCCpnTl-1" vertex="1">
                    <mxGeometry x="310" y="810" width="130" height="220" as="geometry"/>
                </mxCell>
                <mxCell id="fpP2IbZNrY9uJ29WWO8n-24" value="" style="shape=partialRectangle;collapsible=0;dropTarget=0;pointerEvents=0;fillColor=none;top=0;left=0;bottom=1;right=0;points=[[0,0.5],[1,0.5]];portConstraint=eastwest;" parent="fpP2IbZNrY9uJ29WWO8n-23" vertex="1">
                    <mxGeometry y="30" width="130" height="30" as="geometry"/>
                </mxCell>
                <mxCell id="fpP2IbZNrY9uJ29WWO8n-25" value="PK" style="shape=partialRectangle;connectable=0;fillColor=none;top=0;left=0;bottom=0;right=0;fontStyle=1;overflow=hidden;" parent="fpP2IbZNrY9uJ29WWO8n-24" vertex="1">
                    <mxGeometry width="30" height="30" as="geometry"/>
                </mxCell>
                <mxCell id="fpP2IbZNrY9uJ29WWO8n-26" value="id" style="shape=partialRectangle;connectable=0;fillColor=none;top=0;left=0;bottom=0;right=0;align=left;spacingLeft=6;fontStyle=5;overflow=hidden;" parent="fpP2IbZNrY9uJ29WWO8n-24" vertex="1">
                    <mxGeometry x="30" width="100" height="30" as="geometry"/>
                </mxCell>
                <mxCell id="fpP2IbZNrY9uJ29WWO8n-27" value="" style="shape=partialRectangle;collapsible=0;dropTarget=0;pointerEvents=0;fillColor=none;top=0;left=0;bottom=0;right=0;points=[[0,0.5],[1,0.5]];portConstraint=eastwest;" parent="fpP2IbZNrY9uJ29WWO8n-23" vertex="1">
                    <mxGeometry y="60" width="130" height="20" as="geometry"/>
                </mxCell>
                <mxCell id="fpP2IbZNrY9uJ29WWO8n-28" value="FK" style="shape=partialRectangle;connectable=0;fillColor=none;top=0;left=0;bottom=0;right=0;editable=1;overflow=hidden;fontStyle=1" parent="fpP2IbZNrY9uJ29WWO8n-27" vertex="1">
                    <mxGeometry width="30" height="20" as="geometry"/>
                </mxCell>
                <mxCell id="fpP2IbZNrY9uJ29WWO8n-29" value="election_id" style="shape=partialRectangle;connectable=0;fillColor=none;top=0;left=0;bottom=0;right=0;align=left;spacingLeft=6;overflow=hidden;" parent="fpP2IbZNrY9uJ29WWO8n-27" vertex="1">
                    <mxGeometry x="30" width="100" height="20" as="geometry"/>
                </mxCell>
                <mxCell id="fpP2IbZNrY9uJ29WWO8n-30" value="" style="shape=partialRectangle;collapsible=0;dropTarget=0;pointerEvents=0;fillColor=none;top=0;left=0;bottom=0;right=0;points=[[0,0.5],[1,0.5]];portConstraint=eastwest;" parent="fpP2IbZNrY9uJ29WWO8n-23" vertex="1">
                    <mxGeometry y="80" width="130" height="20" as="geometry"/>
                </mxCell>
                <mxCell id="fpP2IbZNrY9uJ29WWO8n-31" value="FK" style="shape=partialRectangle;connectable=0;fillColor=none;top=0;left=0;bottom=0;right=0;editable=1;overflow=hidden;fontStyle=1" parent="fpP2IbZNrY9uJ29WWO8n-30" vertex="1">
                    <mxGeometry width="30" height="20" as="geometry"/>
                </mxCell>
                <mxCell id="fpP2IbZNrY9uJ29WWO8n-32" value="position_id" style="shape=partialRectangle;connectable=0;fillColor=none;top=0;left=0;bottom=0;right=0;align=left;spacingLeft=6;overflow=hidden;" parent="fpP2IbZNrY9uJ29WWO8n-30" vertex="1">
                    <mxGeometry x="30" width="100" height="20" as="geometry"/>
                </mxCell>
                <mxCell id="fpP2IbZNrY9uJ29WWO8n-33" value="" style="shape=partialRectangle;collapsible=0;dropTarget=0;pointerEvents=0;fillColor=none;top=0;left=0;bottom=0;right=0;points=[[0,0.5],[1,0.5]];portConstraint=eastwest;" parent="fpP2IbZNrY9uJ29WWO8n-23" vertex="1">
                    <mxGeometry y="100" width="130" height="20" as="geometry"/>
                </mxCell>
                <mxCell id="fpP2IbZNrY9uJ29WWO8n-34" value="FK" style="shape=partialRectangle;connectable=0;fillColor=none;top=0;left=0;bottom=0;right=0;editable=1;overflow=hidden;fontStyle=1" parent="fpP2IbZNrY9uJ29WWO8n-33" vertex="1">
                    <mxGeometry width="30" height="20" as="geometry"/>
                </mxCell>
                <mxCell id="fpP2IbZNrY9uJ29WWO8n-35" value="user_id" style="shape=partialRectangle;connectable=0;fillColor=none;top=0;left=0;bottom=0;right=0;align=left;spacingLeft=6;overflow=hidden;" parent="fpP2IbZNrY9uJ29WWO8n-33" vertex="1">
                    <mxGeometry x="30" width="100" height="20" as="geometry"/>
                </mxCell>
                <mxCell id="fpP2IbZNrY9uJ29WWO8n-36" value="" style="shape=partialRectangle;collapsible=0;dropTarget=0;pointerEvents=0;fillColor=none;top=0;left=0;bottom=0;right=0;points=[[0,0.5],[1,0.5]];portConstraint=eastwest;" parent="fpP2IbZNrY9uJ29WWO8n-23" vertex="1">
                    <mxGeometry y="120" width="130" height="20" as="geometry"/>
                </mxCell>
                <mxCell id="fpP2IbZNrY9uJ29WWO8n-37" value="" style="shape=partialRectangle;connectable=0;fillColor=none;top=0;left=0;bottom=0;right=0;editable=1;overflow=hidden;fontStyle=1" parent="fpP2IbZNrY9uJ29WWO8n-36" vertex="1">
                    <mxGeometry width="30" height="20" as="geometry"/>
                </mxCell>
                <mxCell id="fpP2IbZNrY9uJ29WWO8n-38" value="photo" style="shape=partialRectangle;connectable=0;fillColor=none;top=0;left=0;bottom=0;right=0;align=left;spacingLeft=6;overflow=hidden;" parent="fpP2IbZNrY9uJ29WWO8n-36" vertex="1">
                    <mxGeometry x="30" width="100" height="20" as="geometry"/>
                </mxCell>
                <mxCell id="fpP2IbZNrY9uJ29WWO8n-39" value="" style="shape=partialRectangle;collapsible=0;dropTarget=0;pointerEvents=0;fillColor=none;top=0;left=0;bottom=0;right=0;points=[[0,0.5],[1,0.5]];portConstraint=eastwest;" parent="fpP2IbZNrY9uJ29WWO8n-23" vertex="1">
                    <mxGeometry y="140" width="130" height="20" as="geometry"/>
                </mxCell>
                <mxCell id="fpP2IbZNrY9uJ29WWO8n-40" value="" style="shape=partialRectangle;connectable=0;fillColor=none;top=0;left=0;bottom=0;right=0;editable=1;overflow=hidden;fontStyle=1" parent="fpP2IbZNrY9uJ29WWO8n-39" vertex="1">
                    <mxGeometry width="30" height="20" as="geometry"/>
                </mxCell>
                <mxCell id="fpP2IbZNrY9uJ29WWO8n-41" value="platform" style="shape=partialRectangle;connectable=0;fillColor=none;top=0;left=0;bottom=0;right=0;align=left;spacingLeft=6;overflow=hidden;" parent="fpP2IbZNrY9uJ29WWO8n-39" vertex="1">
                    <mxGeometry x="30" width="100" height="20" as="geometry"/>
                </mxCell>
                <mxCell id="fpP2IbZNrY9uJ29WWO8n-42" value="" style="shape=partialRectangle;collapsible=0;dropTarget=0;pointerEvents=0;fillColor=none;top=0;left=0;bottom=0;right=0;points=[[0,0.5],[1,0.5]];portConstraint=eastwest;" parent="fpP2IbZNrY9uJ29WWO8n-23" vertex="1">
                    <mxGeometry y="160" width="130" height="20" as="geometry"/>
                </mxCell>
                <mxCell id="fpP2IbZNrY9uJ29WWO8n-43" value="" style="shape=partialRectangle;connectable=0;fillColor=none;top=0;left=0;bottom=0;right=0;editable=1;overflow=hidden;" parent="fpP2IbZNrY9uJ29WWO8n-42" vertex="1">
                    <mxGeometry width="30" height="20" as="geometry"/>
                </mxCell>
                <mxCell id="fpP2IbZNrY9uJ29WWO8n-44" value="created_at" style="shape=partialRectangle;connectable=0;fillColor=none;top=0;left=0;bottom=0;right=0;align=left;spacingLeft=6;overflow=hidden;" parent="fpP2IbZNrY9uJ29WWO8n-42" vertex="1">
                    <mxGeometry x="30" width="100" height="20" as="geometry"/>
                </mxCell>
                <mxCell id="fpP2IbZNrY9uJ29WWO8n-45" value="" style="shape=partialRectangle;collapsible=0;dropTarget=0;pointerEvents=0;fillColor=none;top=0;left=0;bottom=0;right=0;points=[[0,0.5],[1,0.5]];portConstraint=eastwest;" parent="fpP2IbZNrY9uJ29WWO8n-23" vertex="1">
                    <mxGeometry y="180" width="130" height="20" as="geometry"/>
                </mxCell>
                <mxCell id="fpP2IbZNrY9uJ29WWO8n-46" value="" style="shape=partialRectangle;connectable=0;fillColor=none;top=0;left=0;bottom=0;right=0;editable=1;overflow=hidden;" parent="fpP2IbZNrY9uJ29WWO8n-45" vertex="1">
                    <mxGeometry width="30" height="20" as="geometry"/>
                </mxCell>
                <mxCell id="fpP2IbZNrY9uJ29WWO8n-47" value="updated_at" style="shape=partialRectangle;connectable=0;fillColor=none;top=0;left=0;bottom=0;right=0;align=left;spacingLeft=6;overflow=hidden;" parent="fpP2IbZNrY9uJ29WWO8n-45" vertex="1">
                    <mxGeometry x="30" width="100" height="20" as="geometry"/>
                </mxCell>
                <mxCell id="fpP2IbZNrY9uJ29WWO8n-48" value="" style="shape=partialRectangle;collapsible=0;dropTarget=0;pointerEvents=0;fillColor=none;top=0;left=0;bottom=0;right=0;points=[[0,0.5],[1,0.5]];portConstraint=eastwest;" parent="fpP2IbZNrY9uJ29WWO8n-23" vertex="1">
                    <mxGeometry y="200" width="130" height="20" as="geometry"/>
                </mxCell>
                <mxCell id="fpP2IbZNrY9uJ29WWO8n-49" value="" style="shape=partialRectangle;connectable=0;fillColor=none;top=0;left=0;bottom=0;right=0;editable=1;overflow=hidden;" parent="fpP2IbZNrY9uJ29WWO8n-48" vertex="1">
                    <mxGeometry width="30" height="20" as="geometry"/>
                </mxCell>
                <mxCell id="fpP2IbZNrY9uJ29WWO8n-50" value="deleted_at" style="shape=partialRectangle;connectable=0;fillColor=none;top=0;left=0;bottom=0;right=0;align=left;spacingLeft=6;overflow=hidden;" parent="fpP2IbZNrY9uJ29WWO8n-48" vertex="1">
                    <mxGeometry x="30" width="100" height="20" as="geometry"/>
                </mxCell>
                <mxCell id="fpP2IbZNrY9uJ29WWO8n-51" value="elections" style="shape=table;startSize=30;container=1;collapsible=1;childLayout=tableLayout;fixedRows=1;rowLines=0;fontStyle=1;align=center;resizeLast=1;" parent="TchkiXIJ95gt_sCCpnTl-1" vertex="1">
                    <mxGeometry x="330" y="1050" width="120" height="200" as="geometry"/>
                </mxCell>
                <mxCell id="fpP2IbZNrY9uJ29WWO8n-52" value="" style="shape=partialRectangle;collapsible=0;dropTarget=0;pointerEvents=0;fillColor=none;top=0;left=0;bottom=1;right=0;points=[[0,0.5],[1,0.5]];portConstraint=eastwest;" parent="fpP2IbZNrY9uJ29WWO8n-51" vertex="1">
                    <mxGeometry y="30" width="120" height="30" as="geometry"/>
                </mxCell>
                <mxCell id="fpP2IbZNrY9uJ29WWO8n-53" value="PK" style="shape=partialRectangle;connectable=0;fillColor=none;top=0;left=0;bottom=0;right=0;fontStyle=1;overflow=hidden;" parent="fpP2IbZNrY9uJ29WWO8n-52" vertex="1">
                    <mxGeometry width="30" height="30" as="geometry"/>
                </mxCell>
                <mxCell id="fpP2IbZNrY9uJ29WWO8n-54" value="id" style="shape=partialRectangle;connectable=0;fillColor=none;top=0;left=0;bottom=0;right=0;align=left;spacingLeft=6;fontStyle=5;overflow=hidden;" parent="fpP2IbZNrY9uJ29WWO8n-52" vertex="1">
                    <mxGeometry x="30" width="90" height="30" as="geometry"/>
                </mxCell>
                <mxCell id="fpP2IbZNrY9uJ29WWO8n-55" value="" style="shape=partialRectangle;collapsible=0;dropTarget=0;pointerEvents=0;fillColor=none;top=0;left=0;bottom=0;right=0;points=[[0,0.5],[1,0.5]];portConstraint=eastwest;" parent="fpP2IbZNrY9uJ29WWO8n-51" vertex="1">
                    <mxGeometry y="60" width="120" height="20" as="geometry"/>
                </mxCell>
                <mxCell id="fpP2IbZNrY9uJ29WWO8n-56" value="" style="shape=partialRectangle;connectable=0;fillColor=none;top=0;left=0;bottom=0;right=0;editable=1;overflow=hidden;fontStyle=1" parent="fpP2IbZNrY9uJ29WWO8n-55" vertex="1">
                    <mxGeometry width="30" height="20" as="geometry"/>
                </mxCell>
                <mxCell id="fpP2IbZNrY9uJ29WWO8n-57" value="title" style="shape=partialRectangle;connectable=0;fillColor=none;top=0;left=0;bottom=0;right=0;align=left;spacingLeft=6;overflow=hidden;" parent="fpP2IbZNrY9uJ29WWO8n-55" vertex="1">
                    <mxGeometry x="30" width="90" height="20" as="geometry"/>
                </mxCell>
                <mxCell id="fpP2IbZNrY9uJ29WWO8n-58" value="" style="shape=partialRectangle;collapsible=0;dropTarget=0;pointerEvents=0;fillColor=none;top=0;left=0;bottom=0;right=0;points=[[0,0.5],[1,0.5]];portConstraint=eastwest;" parent="fpP2IbZNrY9uJ29WWO8n-51" vertex="1">
                    <mxGeometry y="80" width="120" height="20" as="geometry"/>
                </mxCell>
                <mxCell id="fpP2IbZNrY9uJ29WWO8n-59" value="" style="shape=partialRectangle;connectable=0;fillColor=none;top=0;left=0;bottom=0;right=0;editable=1;overflow=hidden;" parent="fpP2IbZNrY9uJ29WWO8n-58" vertex="1">
                    <mxGeometry width="30" height="20" as="geometry"/>
                </mxCell>
                <mxCell id="fpP2IbZNrY9uJ29WWO8n-60" value="vote_start" style="shape=partialRectangle;connectable=0;fillColor=none;top=0;left=0;bottom=0;right=0;align=left;spacingLeft=6;overflow=hidden;" parent="fpP2IbZNrY9uJ29WWO8n-58" vertex="1">
                    <mxGeometry x="30" width="90" height="20" as="geometry"/>
                </mxCell>
                <mxCell id="fpP2IbZNrY9uJ29WWO8n-61" value="" style="shape=partialRectangle;collapsible=0;dropTarget=0;pointerEvents=0;fillColor=none;top=0;left=0;bottom=0;right=0;points=[[0,0.5],[1,0.5]];portConstraint=eastwest;" parent="fpP2IbZNrY9uJ29WWO8n-51" vertex="1">
                    <mxGeometry y="100" width="120" height="20" as="geometry"/>
                </mxCell>
                <mxCell id="fpP2IbZNrY9uJ29WWO8n-62" value="" style="shape=partialRectangle;connectable=0;fillColor=none;top=0;left=0;bottom=0;right=0;editable=1;overflow=hidden;fontStyle=1" parent="fpP2IbZNrY9uJ29WWO8n-61" vertex="1">
                    <mxGeometry width="30" height="20" as="geometry"/>
                </mxCell>
                <mxCell id="fpP2IbZNrY9uJ29WWO8n-63" value="vote_end" style="shape=partialRectangle;connectable=0;fillColor=none;top=0;left=0;bottom=0;right=0;align=left;spacingLeft=6;overflow=hidden;" parent="fpP2IbZNrY9uJ29WWO8n-61" vertex="1">
                    <mxGeometry x="30" width="90" height="20" as="geometry"/>
                </mxCell>
                <mxCell id="fpP2IbZNrY9uJ29WWO8n-64" value="" style="shape=partialRectangle;collapsible=0;dropTarget=0;pointerEvents=0;fillColor=none;top=0;left=0;bottom=0;right=0;points=[[0,0.5],[1,0.5]];portConstraint=eastwest;" parent="fpP2IbZNrY9uJ29WWO8n-51" vertex="1">
                    <mxGeometry y="120" width="120" height="20" as="geometry"/>
                </mxCell>
                <mxCell id="fpP2IbZNrY9uJ29WWO8n-65" value="" style="shape=partialRectangle;connectable=0;fillColor=none;top=0;left=0;bottom=0;right=0;editable=1;overflow=hidden;fontStyle=1" parent="fpP2IbZNrY9uJ29WWO8n-64" vertex="1">
                    <mxGeometry width="30" height="20" as="geometry"/>
                </mxCell>
                <mxCell id="fpP2IbZNrY9uJ29WWO8n-66" value="status" style="shape=partialRectangle;connectable=0;fillColor=none;top=0;left=0;bottom=0;right=0;align=left;spacingLeft=6;overflow=hidden;" parent="fpP2IbZNrY9uJ29WWO8n-64" vertex="1">
                    <mxGeometry x="30" width="90" height="20" as="geometry"/>
                </mxCell>
                <mxCell id="fpP2IbZNrY9uJ29WWO8n-67" value="" style="shape=partialRectangle;collapsible=0;dropTarget=0;pointerEvents=0;fillColor=none;top=0;left=0;bottom=0;right=0;points=[[0,0.5],[1,0.5]];portConstraint=eastwest;" parent="fpP2IbZNrY9uJ29WWO8n-51" vertex="1">
                    <mxGeometry y="140" width="120" height="20" as="geometry"/>
                </mxCell>
                <mxCell id="fpP2IbZNrY9uJ29WWO8n-68" value="" style="shape=partialRectangle;connectable=0;fillColor=none;top=0;left=0;bottom=0;right=0;editable=1;overflow=hidden;" parent="fpP2IbZNrY9uJ29WWO8n-67" vertex="1">
                    <mxGeometry width="30" height="20" as="geometry"/>
                </mxCell>
                <mxCell id="fpP2IbZNrY9uJ29WWO8n-69" value="created_at" style="shape=partialRectangle;connectable=0;fillColor=none;top=0;left=0;bottom=0;right=0;align=left;spacingLeft=6;overflow=hidden;" parent="fpP2IbZNrY9uJ29WWO8n-67" vertex="1">
                    <mxGeometry x="30" width="90" height="20" as="geometry"/>
                </mxCell>
                <mxCell id="fpP2IbZNrY9uJ29WWO8n-70" value="" style="shape=partialRectangle;collapsible=0;dropTarget=0;pointerEvents=0;fillColor=none;top=0;left=0;bottom=0;right=0;points=[[0,0.5],[1,0.5]];portConstraint=eastwest;" parent="fpP2IbZNrY9uJ29WWO8n-51" vertex="1">
                    <mxGeometry y="160" width="120" height="20" as="geometry"/>
                </mxCell>
                <mxCell id="fpP2IbZNrY9uJ29WWO8n-71" value="" style="shape=partialRectangle;connectable=0;fillColor=none;top=0;left=0;bottom=0;right=0;editable=1;overflow=hidden;" parent="fpP2IbZNrY9uJ29WWO8n-70" vertex="1">
                    <mxGeometry width="30" height="20" as="geometry"/>
                </mxCell>
                <mxCell id="fpP2IbZNrY9uJ29WWO8n-72" value="updated_at" style="shape=partialRectangle;connectable=0;fillColor=none;top=0;left=0;bottom=0;right=0;align=left;spacingLeft=6;overflow=hidden;" parent="fpP2IbZNrY9uJ29WWO8n-70" vertex="1">
                    <mxGeometry x="30" width="90" height="20" as="geometry"/>
                </mxCell>
                <mxCell id="fpP2IbZNrY9uJ29WWO8n-73" value="" style="shape=partialRectangle;collapsible=0;dropTarget=0;pointerEvents=0;fillColor=none;top=0;left=0;bottom=0;right=0;points=[[0,0.5],[1,0.5]];portConstraint=eastwest;" parent="fpP2IbZNrY9uJ29WWO8n-51" vertex="1">
                    <mxGeometry y="180" width="120" height="20" as="geometry"/>
                </mxCell>
                <mxCell id="fpP2IbZNrY9uJ29WWO8n-74" value="" style="shape=partialRectangle;connectable=0;fillColor=none;top=0;left=0;bottom=0;right=0;editable=1;overflow=hidden;" parent="fpP2IbZNrY9uJ29WWO8n-73" vertex="1">
                    <mxGeometry width="30" height="20" as="geometry"/>
                </mxCell>
                <mxCell id="fpP2IbZNrY9uJ29WWO8n-75" value="deleted_at" style="shape=partialRectangle;connectable=0;fillColor=none;top=0;left=0;bottom=0;right=0;align=left;spacingLeft=6;overflow=hidden;" parent="fpP2IbZNrY9uJ29WWO8n-73" vertex="1">
                    <mxGeometry x="30" width="90" height="20" as="geometry"/>
                </mxCell>
                <mxCell id="fpP2IbZNrY9uJ29WWO8n-76" value="positions" style="shape=table;startSize=30;container=1;collapsible=1;childLayout=tableLayout;fixedRows=1;rowLines=0;fontStyle=1;align=center;resizeLast=1;" parent="TchkiXIJ95gt_sCCpnTl-1" vertex="1">
                    <mxGeometry x="630" y="840" width="130" height="180" as="geometry">
                        <mxRectangle x="630" y="870" width="90" height="30" as="alternateBounds"/>
                    </mxGeometry>
                </mxCell>
                <mxCell id="fpP2IbZNrY9uJ29WWO8n-77" value="" style="shape=partialRectangle;collapsible=0;dropTarget=0;pointerEvents=0;fillColor=none;top=0;left=0;bottom=1;right=0;points=[[0,0.5],[1,0.5]];portConstraint=eastwest;" parent="fpP2IbZNrY9uJ29WWO8n-76" vertex="1">
                    <mxGeometry y="30" width="130" height="30" as="geometry"/>
                </mxCell>
                <mxCell id="fpP2IbZNrY9uJ29WWO8n-78" value="PK" style="shape=partialRectangle;connectable=0;fillColor=none;top=0;left=0;bottom=0;right=0;fontStyle=1;overflow=hidden;" parent="fpP2IbZNrY9uJ29WWO8n-77" vertex="1">
                    <mxGeometry width="30" height="30" as="geometry"/>
                </mxCell>
                <mxCell id="fpP2IbZNrY9uJ29WWO8n-79" value="id" style="shape=partialRectangle;connectable=0;fillColor=none;top=0;left=0;bottom=0;right=0;align=left;spacingLeft=6;fontStyle=5;overflow=hidden;" parent="fpP2IbZNrY9uJ29WWO8n-77" vertex="1">
                    <mxGeometry x="30" width="100" height="30" as="geometry"/>
                </mxCell>
                <mxCell id="fpP2IbZNrY9uJ29WWO8n-80" value="" style="shape=partialRectangle;collapsible=0;dropTarget=0;pointerEvents=0;fillColor=none;top=0;left=0;bottom=0;right=0;points=[[0,0.5],[1,0.5]];portConstraint=eastwest;" parent="fpP2IbZNrY9uJ29WWO8n-76" vertex="1">
                    <mxGeometry y="60" width="130" height="20" as="geometry"/>
                </mxCell>
                <mxCell id="fpP2IbZNrY9uJ29WWO8n-81" value="FK" style="shape=partialRectangle;connectable=0;fillColor=none;top=0;left=0;bottom=0;right=0;editable=1;overflow=hidden;fontStyle=1" parent="fpP2IbZNrY9uJ29WWO8n-80" vertex="1">
                    <mxGeometry width="30" height="20" as="geometry"/>
                </mxCell>
                <mxCell id="fpP2IbZNrY9uJ29WWO8n-82" value="election_id" style="shape=partialRectangle;connectable=0;fillColor=none;top=0;left=0;bottom=0;right=0;align=left;spacingLeft=6;overflow=hidden;" parent="fpP2IbZNrY9uJ29WWO8n-80" vertex="1">
                    <mxGeometry x="30" width="100" height="20" as="geometry"/>
                </mxCell>
                <mxCell id="fpP2IbZNrY9uJ29WWO8n-83" value="" style="shape=partialRectangle;collapsible=0;dropTarget=0;pointerEvents=0;fillColor=none;top=0;left=0;bottom=0;right=0;points=[[0,0.5],[1,0.5]];portConstraint=eastwest;" parent="fpP2IbZNrY9uJ29WWO8n-76" vertex="1">
                    <mxGeometry y="80" width="130" height="20" as="geometry"/>
                </mxCell>
                <mxCell id="fpP2IbZNrY9uJ29WWO8n-84" value="" style="shape=partialRectangle;connectable=0;fillColor=none;top=0;left=0;bottom=0;right=0;editable=1;overflow=hidden;fontStyle=1" parent="fpP2IbZNrY9uJ29WWO8n-83" vertex="1">
                    <mxGeometry width="30" height="20" as="geometry"/>
                </mxCell>
                <mxCell id="fpP2IbZNrY9uJ29WWO8n-85" value="name" style="shape=partialRectangle;connectable=0;fillColor=none;top=0;left=0;bottom=0;right=0;align=left;spacingLeft=6;overflow=hidden;" parent="fpP2IbZNrY9uJ29WWO8n-83" vertex="1">
                    <mxGeometry x="30" width="100" height="20" as="geometry"/>
                </mxCell>
                <mxCell id="fpP2IbZNrY9uJ29WWO8n-86" value="" style="shape=partialRectangle;collapsible=0;dropTarget=0;pointerEvents=0;fillColor=none;top=0;left=0;bottom=0;right=0;points=[[0,0.5],[1,0.5]];portConstraint=eastwest;" parent="fpP2IbZNrY9uJ29WWO8n-76" vertex="1">
                    <mxGeometry y="100" width="130" height="20" as="geometry"/>
                </mxCell>
                <mxCell id="fpP2IbZNrY9uJ29WWO8n-87" value="" style="shape=partialRectangle;connectable=0;fillColor=none;top=0;left=0;bottom=0;right=0;editable=1;overflow=hidden;fontStyle=1" parent="fpP2IbZNrY9uJ29WWO8n-86" vertex="1">
                    <mxGeometry width="30" height="20" as="geometry"/>
                </mxCell>
                <mxCell id="fpP2IbZNrY9uJ29WWO8n-88" value="max_candidate" style="shape=partialRectangle;connectable=0;fillColor=none;top=0;left=0;bottom=0;right=0;align=left;spacingLeft=6;overflow=hidden;" parent="fpP2IbZNrY9uJ29WWO8n-86" vertex="1">
                    <mxGeometry x="30" width="100" height="20" as="geometry"/>
                </mxCell>
                <mxCell id="fpP2IbZNrY9uJ29WWO8n-89" value="" style="shape=partialRectangle;collapsible=0;dropTarget=0;pointerEvents=0;fillColor=none;top=0;left=0;bottom=0;right=0;points=[[0,0.5],[1,0.5]];portConstraint=eastwest;" parent="fpP2IbZNrY9uJ29WWO8n-76" vertex="1">
                    <mxGeometry y="120" width="130" height="20" as="geometry"/>
                </mxCell>
                <mxCell id="fpP2IbZNrY9uJ29WWO8n-90" value="" style="shape=partialRectangle;connectable=0;fillColor=none;top=0;left=0;bottom=0;right=0;editable=1;overflow=hidden;" parent="fpP2IbZNrY9uJ29WWO8n-89" vertex="1">
                    <mxGeometry width="30" height="20" as="geometry"/>
                </mxCell>
                <mxCell id="fpP2IbZNrY9uJ29WWO8n-91" value="created_at" style="shape=partialRectangle;connectable=0;fillColor=none;top=0;left=0;bottom=0;right=0;align=left;spacingLeft=6;overflow=hidden;" parent="fpP2IbZNrY9uJ29WWO8n-89" vertex="1">
                    <mxGeometry x="30" width="100" height="20" as="geometry"/>
                </mxCell>
                <mxCell id="fpP2IbZNrY9uJ29WWO8n-92" value="" style="shape=partialRectangle;collapsible=0;dropTarget=0;pointerEvents=0;fillColor=none;top=0;left=0;bottom=0;right=0;points=[[0,0.5],[1,0.5]];portConstraint=eastwest;" parent="fpP2IbZNrY9uJ29WWO8n-76" vertex="1">
                    <mxGeometry y="140" width="130" height="20" as="geometry"/>
                </mxCell>
                <mxCell id="fpP2IbZNrY9uJ29WWO8n-93" value="" style="shape=partialRectangle;connectable=0;fillColor=none;top=0;left=0;bottom=0;right=0;editable=1;overflow=hidden;" parent="fpP2IbZNrY9uJ29WWO8n-92" vertex="1">
                    <mxGeometry width="30" height="20" as="geometry"/>
                </mxCell>
                <mxCell id="fpP2IbZNrY9uJ29WWO8n-94" value="updated_at" style="shape=partialRectangle;connectable=0;fillColor=none;top=0;left=0;bottom=0;right=0;align=left;spacingLeft=6;overflow=hidden;" parent="fpP2IbZNrY9uJ29WWO8n-92" vertex="1">
                    <mxGeometry x="30" width="100" height="20" as="geometry"/>
                </mxCell>
                <mxCell id="fpP2IbZNrY9uJ29WWO8n-95" value="" style="shape=partialRectangle;collapsible=0;dropTarget=0;pointerEvents=0;fillColor=none;top=0;left=0;bottom=0;right=0;points=[[0,0.5],[1,0.5]];portConstraint=eastwest;" parent="fpP2IbZNrY9uJ29WWO8n-76" vertex="1">
                    <mxGeometry y="160" width="130" height="20" as="geometry"/>
                </mxCell>
                <mxCell id="fpP2IbZNrY9uJ29WWO8n-96" value="" style="shape=partialRectangle;connectable=0;fillColor=none;top=0;left=0;bottom=0;right=0;editable=1;overflow=hidden;" parent="fpP2IbZNrY9uJ29WWO8n-95" vertex="1">
                    <mxGeometry width="30" height="20" as="geometry"/>
                </mxCell>
                <mxCell id="fpP2IbZNrY9uJ29WWO8n-97" value="deleted_at" style="shape=partialRectangle;connectable=0;fillColor=none;top=0;left=0;bottom=0;right=0;align=left;spacingLeft=6;overflow=hidden;" parent="fpP2IbZNrY9uJ29WWO8n-95" vertex="1">
                    <mxGeometry x="30" width="100" height="20" as="geometry"/>
                </mxCell>
                <mxCell id="fpP2IbZNrY9uJ29WWO8n-99" value="" style="edgeStyle=entityRelationEdgeStyle;fontSize=12;html=1;endArrow=ERmandOne;startArrow=ERmandOne;" parent="TchkiXIJ95gt_sCCpnTl-1" source="fpP2IbZNrY9uJ29WWO8n-33" target="OusGNvMnw1ku1Nts1Jbt-52" edge="1">
                    <mxGeometry width="100" height="100" relative="1" as="geometry">
                        <mxPoint x="490" y="910" as="sourcePoint"/>
                        <mxPoint x="590" y="810" as="targetPoint"/>
                    </mxGeometry>
                </mxCell>
                <mxCell id="fpP2IbZNrY9uJ29WWO8n-100" value="" style="edgeStyle=entityRelationEdgeStyle;fontSize=12;html=1;endArrow=ERmandOne;startArrow=ERmandOne;" parent="TchkiXIJ95gt_sCCpnTl-1" source="fpP2IbZNrY9uJ29WWO8n-30" target="fpP2IbZNrY9uJ29WWO8n-77" edge="1">
                    <mxGeometry width="100" height="100" relative="1" as="geometry">
                        <mxPoint x="480" y="910" as="sourcePoint"/>
                        <mxPoint x="580" y="810" as="targetPoint"/>
                    </mxGeometry>
                </mxCell>
                <mxCell id="fpP2IbZNrY9uJ29WWO8n-101" value="" style="edgeStyle=entityRelationEdgeStyle;fontSize=12;html=1;endArrow=ERoneToMany;" parent="TchkiXIJ95gt_sCCpnTl-1" source="fpP2IbZNrY9uJ29WWO8n-52" target="fpP2IbZNrY9uJ29WWO8n-27" edge="1">
                    <mxGeometry width="100" height="100" relative="1" as="geometry">
                        <mxPoint x="190" y="1150" as="sourcePoint"/>
                        <mxPoint x="290" y="1050" as="targetPoint"/>
                    </mxGeometry>
                </mxCell>
                <mxCell id="fpP2IbZNrY9uJ29WWO8n-102" value="" style="edgeStyle=entityRelationEdgeStyle;fontSize=12;html=1;endArrow=ERoneToMany;" parent="TchkiXIJ95gt_sCCpnTl-1" source="fpP2IbZNrY9uJ29WWO8n-52" target="fpP2IbZNrY9uJ29WWO8n-80" edge="1">
                    <mxGeometry width="100" height="100" relative="1" as="geometry">
                        <mxPoint x="580" y="1200" as="sourcePoint"/>
                        <mxPoint x="680" y="1100" as="targetPoint"/>
                    </mxGeometry>
                </mxCell>
                <mxCell id="fpP2IbZNrY9uJ29WWO8n-121" value="votes" style="shape=table;startSize=30;container=1;collapsible=1;childLayout=tableLayout;fixedRows=1;rowLines=0;fontStyle=1;align=center;resizeLast=1;" parent="TchkiXIJ95gt_sCCpnTl-1" vertex="1">
                    <mxGeometry x="520" y="1170" width="123" height="120" as="geometry"/>
                </mxCell>
                <mxCell id="fpP2IbZNrY9uJ29WWO8n-122" value="" style="shape=partialRectangle;collapsible=0;dropTarget=0;pointerEvents=0;fillColor=none;top=0;left=0;bottom=1;right=0;points=[[0,0.5],[1,0.5]];portConstraint=eastwest;" parent="fpP2IbZNrY9uJ29WWO8n-121" vertex="1">
                    <mxGeometry y="30" width="123" height="30" as="geometry"/>
                </mxCell>
                <mxCell id="fpP2IbZNrY9uJ29WWO8n-123" value="PK" style="shape=partialRectangle;connectable=0;fillColor=none;top=0;left=0;bottom=0;right=0;fontStyle=1;overflow=hidden;" parent="fpP2IbZNrY9uJ29WWO8n-122" vertex="1">
                    <mxGeometry width="30" height="30" as="geometry"/>
                </mxCell>
                <mxCell id="fpP2IbZNrY9uJ29WWO8n-124" value="id" style="shape=partialRectangle;connectable=0;fillColor=none;top=0;left=0;bottom=0;right=0;align=left;spacingLeft=6;fontStyle=5;overflow=hidden;" parent="fpP2IbZNrY9uJ29WWO8n-122" vertex="1">
                    <mxGeometry x="30" width="93" height="30" as="geometry"/>
                </mxCell>
                <mxCell id="fpP2IbZNrY9uJ29WWO8n-125" value="" style="shape=partialRectangle;collapsible=0;dropTarget=0;pointerEvents=0;fillColor=none;top=0;left=0;bottom=0;right=0;points=[[0,0.5],[1,0.5]];portConstraint=eastwest;" parent="fpP2IbZNrY9uJ29WWO8n-121" vertex="1">
                    <mxGeometry y="60" width="123" height="20" as="geometry"/>
                </mxCell>
                <mxCell id="fpP2IbZNrY9uJ29WWO8n-126" value="FK" style="shape=partialRectangle;connectable=0;fillColor=none;top=0;left=0;bottom=0;right=0;editable=1;overflow=hidden;fontStyle=1" parent="fpP2IbZNrY9uJ29WWO8n-125" vertex="1">
                    <mxGeometry width="30" height="20" as="geometry"/>
                </mxCell>
                <mxCell id="fpP2IbZNrY9uJ29WWO8n-127" value="election_id" style="shape=partialRectangle;connectable=0;fillColor=none;top=0;left=0;bottom=0;right=0;align=left;spacingLeft=6;overflow=hidden;" parent="fpP2IbZNrY9uJ29WWO8n-125" vertex="1">
                    <mxGeometry x="30" width="93" height="20" as="geometry"/>
                </mxCell>
                <mxCell id="fpP2IbZNrY9uJ29WWO8n-128" value="" style="shape=partialRectangle;collapsible=0;dropTarget=0;pointerEvents=0;fillColor=none;top=0;left=0;bottom=0;right=0;points=[[0,0.5],[1,0.5]];portConstraint=eastwest;" parent="fpP2IbZNrY9uJ29WWO8n-121" vertex="1">
                    <mxGeometry y="80" width="123" height="20" as="geometry"/>
                </mxCell>
                <mxCell id="fpP2IbZNrY9uJ29WWO8n-129" value="FK" style="shape=partialRectangle;connectable=0;fillColor=none;top=0;left=0;bottom=0;right=0;editable=1;overflow=hidden;fontStyle=1" parent="fpP2IbZNrY9uJ29WWO8n-128" vertex="1">
                    <mxGeometry width="30" height="20" as="geometry"/>
                </mxCell>
                <mxCell id="fpP2IbZNrY9uJ29WWO8n-130" value="voters_id" style="shape=partialRectangle;connectable=0;fillColor=none;top=0;left=0;bottom=0;right=0;align=left;spacingLeft=6;overflow=hidden;" parent="fpP2IbZNrY9uJ29WWO8n-128" vertex="1">
                    <mxGeometry x="30" width="93" height="20" as="geometry"/>
                </mxCell>
                <mxCell id="fpP2IbZNrY9uJ29WWO8n-131" value="" style="shape=partialRectangle;collapsible=0;dropTarget=0;pointerEvents=0;fillColor=none;top=0;left=0;bottom=0;right=0;points=[[0,0.5],[1,0.5]];portConstraint=eastwest;" parent="fpP2IbZNrY9uJ29WWO8n-121" vertex="1">
                    <mxGeometry y="100" width="123" height="20" as="geometry"/>
                </mxCell>
                <mxCell id="fpP2IbZNrY9uJ29WWO8n-132" value="" style="shape=partialRectangle;connectable=0;fillColor=none;top=0;left=0;bottom=0;right=0;editable=1;overflow=hidden;" parent="fpP2IbZNrY9uJ29WWO8n-131" vertex="1">
                    <mxGeometry width="30" height="20" as="geometry"/>
                </mxCell>
                <mxCell id="fpP2IbZNrY9uJ29WWO8n-133" value="date_casted" style="shape=partialRectangle;connectable=0;fillColor=none;top=0;left=0;bottom=0;right=0;align=left;spacingLeft=6;overflow=hidden;" parent="fpP2IbZNrY9uJ29WWO8n-131" vertex="1">
                    <mxGeometry x="30" width="93" height="20" as="geometry"/>
                </mxCell>
                <mxCell id="m0f9UAqzQDwI2y0ihsJh-0" value="vote_details" style="shape=table;startSize=30;container=1;collapsible=1;childLayout=tableLayout;fixedRows=1;rowLines=0;fontStyle=1;align=center;resizeLast=1;" parent="TchkiXIJ95gt_sCCpnTl-1" vertex="1">
                    <mxGeometry x="643" y="1040" width="123" height="120" as="geometry"/>
                </mxCell>
                <mxCell id="m0f9UAqzQDwI2y0ihsJh-1" value="" style="shape=partialRectangle;collapsible=0;dropTarget=0;pointerEvents=0;fillColor=none;top=0;left=0;bottom=1;right=0;points=[[0,0.5],[1,0.5]];portConstraint=eastwest;" parent="m0f9UAqzQDwI2y0ihsJh-0" vertex="1">
                    <mxGeometry y="30" width="123" height="30" as="geometry"/>
                </mxCell>
                <mxCell id="m0f9UAqzQDwI2y0ihsJh-2" value="PK" style="shape=partialRectangle;connectable=0;fillColor=none;top=0;left=0;bottom=0;right=0;fontStyle=1;overflow=hidden;" parent="m0f9UAqzQDwI2y0ihsJh-1" vertex="1">
                    <mxGeometry width="30" height="30" as="geometry"/>
                </mxCell>
                <mxCell id="m0f9UAqzQDwI2y0ihsJh-3" value="id" style="shape=partialRectangle;connectable=0;fillColor=none;top=0;left=0;bottom=0;right=0;align=left;spacingLeft=6;fontStyle=5;overflow=hidden;" parent="m0f9UAqzQDwI2y0ihsJh-1" vertex="1">
                    <mxGeometry x="30" width="93" height="30" as="geometry"/>
                </mxCell>
                <mxCell id="m0f9UAqzQDwI2y0ihsJh-4" value="" style="shape=partialRectangle;collapsible=0;dropTarget=0;pointerEvents=0;fillColor=none;top=0;left=0;bottom=0;right=0;points=[[0,0.5],[1,0.5]];portConstraint=eastwest;" parent="m0f9UAqzQDwI2y0ihsJh-0" vertex="1">
                    <mxGeometry y="60" width="123" height="20" as="geometry"/>
                </mxCell>
                <mxCell id="m0f9UAqzQDwI2y0ihsJh-5" value="FK" style="shape=partialRectangle;connectable=0;fillColor=none;top=0;left=0;bottom=0;right=0;editable=1;overflow=hidden;fontStyle=1" parent="m0f9UAqzQDwI2y0ihsJh-4" vertex="1">
                    <mxGeometry width="30" height="20" as="geometry"/>
                </mxCell>
                <mxCell id="m0f9UAqzQDwI2y0ihsJh-6" value="votes_id" style="shape=partialRectangle;connectable=0;fillColor=none;top=0;left=0;bottom=0;right=0;align=left;spacingLeft=6;overflow=hidden;" parent="m0f9UAqzQDwI2y0ihsJh-4" vertex="1">
                    <mxGeometry x="30" width="93" height="20" as="geometry"/>
                </mxCell>
                <mxCell id="m0f9UAqzQDwI2y0ihsJh-7" value="" style="shape=partialRectangle;collapsible=0;dropTarget=0;pointerEvents=0;fillColor=none;top=0;left=0;bottom=0;right=0;points=[[0,0.5],[1,0.5]];portConstraint=eastwest;" parent="m0f9UAqzQDwI2y0ihsJh-0" vertex="1">
                    <mxGeometry y="80" width="123" height="20" as="geometry"/>
                </mxCell>
                <mxCell id="m0f9UAqzQDwI2y0ihsJh-8" value="FK" style="shape=partialRectangle;connectable=0;fillColor=none;top=0;left=0;bottom=0;right=0;editable=1;overflow=hidden;fontStyle=1" parent="m0f9UAqzQDwI2y0ihsJh-7" vertex="1">
                    <mxGeometry width="30" height="20" as="geometry"/>
                </mxCell>
                <mxCell id="m0f9UAqzQDwI2y0ihsJh-9" value="position_id" style="shape=partialRectangle;connectable=0;fillColor=none;top=0;left=0;bottom=0;right=0;align=left;spacingLeft=6;overflow=hidden;" parent="m0f9UAqzQDwI2y0ihsJh-7" vertex="1">
                    <mxGeometry x="30" width="93" height="20" as="geometry"/>
                </mxCell>
                <mxCell id="m0f9UAqzQDwI2y0ihsJh-10" value="" style="shape=partialRectangle;collapsible=0;dropTarget=0;pointerEvents=0;fillColor=none;top=0;left=0;bottom=0;right=0;points=[[0,0.5],[1,0.5]];portConstraint=eastwest;" parent="m0f9UAqzQDwI2y0ihsJh-0" vertex="1">
                    <mxGeometry y="100" width="123" height="20" as="geometry"/>
                </mxCell>
                <mxCell id="m0f9UAqzQDwI2y0ihsJh-11" value="FK" style="shape=partialRectangle;connectable=0;fillColor=none;top=0;left=0;bottom=0;right=0;editable=1;overflow=hidden;fontStyle=1" parent="m0f9UAqzQDwI2y0ihsJh-10" vertex="1">
                    <mxGeometry width="30" height="20" as="geometry"/>
                </mxCell>
                <mxCell id="m0f9UAqzQDwI2y0ihsJh-12" value="candidate_id" style="shape=partialRectangle;connectable=0;fillColor=none;top=0;left=0;bottom=0;right=0;align=left;spacingLeft=6;overflow=hidden;" parent="m0f9UAqzQDwI2y0ihsJh-10" vertex="1">
                    <mxGeometry x="30" width="93" height="20" as="geometry"/>
                </mxCell>
                <mxCell id="m0f9UAqzQDwI2y0ihsJh-13" value="" style="edgeStyle=entityRelationEdgeStyle;fontSize=12;html=1;endArrow=ERoneToMany;" parent="TchkiXIJ95gt_sCCpnTl-1" source="fpP2IbZNrY9uJ29WWO8n-48" target="fpP2IbZNrY9uJ29WWO8n-128" edge="1">
                    <mxGeometry width="100" height="100" relative="1" as="geometry">
                        <mxPoint x="580" y="1170" as="sourcePoint"/>
                        <mxPoint x="680" y="1070" as="targetPoint"/>
                    </mxGeometry>
                </mxCell>
                <mxCell id="m0f9UAqzQDwI2y0ihsJh-14" value="" style="edgeStyle=entityRelationEdgeStyle;fontSize=12;html=1;endArrow=ERmany;startArrow=ERmany;" parent="TchkiXIJ95gt_sCCpnTl-1" source="fpP2IbZNrY9uJ29WWO8n-52" target="fpP2IbZNrY9uJ29WWO8n-125" edge="1">
                    <mxGeometry width="100" height="100" relative="1" as="geometry">
                        <mxPoint x="510" y="1130" as="sourcePoint"/>
                        <mxPoint x="610" y="1030" as="targetPoint"/>
                    </mxGeometry>
                </mxCell>
                <mxCell id="m0f9UAqzQDwI2y0ihsJh-16" value="" style="edgeStyle=entityRelationEdgeStyle;fontSize=12;html=1;endArrow=ERmandOne;startArrow=ERmandOne;" parent="TchkiXIJ95gt_sCCpnTl-1" source="fpP2IbZNrY9uJ29WWO8n-24" target="m0f9UAqzQDwI2y0ihsJh-10" edge="1">
                    <mxGeometry width="100" height="100" relative="1" as="geometry">
                        <mxPoint x="500" y="1120" as="sourcePoint"/>
                        <mxPoint x="600" y="1020" as="targetPoint"/>
                    </mxGeometry>
                </mxCell>
                <mxCell id="m0f9UAqzQDwI2y0ihsJh-17" value="" style="edgeStyle=entityRelationEdgeStyle;fontSize=12;html=1;endArrow=ERmandOne;startArrow=ERmandOne;" parent="TchkiXIJ95gt_sCCpnTl-1" source="fpP2IbZNrY9uJ29WWO8n-77" target="m0f9UAqzQDwI2y0ihsJh-7" edge="1">
                    <mxGeometry width="100" height="100" relative="1" as="geometry">
                        <mxPoint x="520" y="1120" as="sourcePoint"/>
                        <mxPoint x="620" y="1020" as="targetPoint"/>
                    </mxGeometry>
                </mxCell>
                <mxCell id="m0f9UAqzQDwI2y0ihsJh-18" value="" style="edgeStyle=entityRelationEdgeStyle;fontSize=12;html=1;endArrow=ERmandOne;startArrow=ERmandOne;exitX=1;exitY=0.5;exitDx=0;exitDy=0;" parent="TchkiXIJ95gt_sCCpnTl-1" source="fpP2IbZNrY9uJ29WWO8n-122" target="m0f9UAqzQDwI2y0ihsJh-4" edge="1">
                    <mxGeometry width="100" height="100" relative="1" as="geometry">
                        <mxPoint x="530" y="1130" as="sourcePoint"/>
                        <mxPoint x="630" y="1030" as="targetPoint"/>
                    </mxGeometry>
                </mxCell>
                <mxCell id="m0f9UAqzQDwI2y0ihsJh-36" value="payments" style="shape=table;startSize=30;container=1;collapsible=1;childLayout=tableLayout;fixedRows=1;rowLines=0;fontStyle=1;align=center;resizeLast=1;" parent="TchkiXIJ95gt_sCCpnTl-1" vertex="1">
                    <mxGeometry x="220" y="50" width="120" height="240" as="geometry"/>
                </mxCell>
                <mxCell id="m0f9UAqzQDwI2y0ihsJh-37" value="" style="shape=partialRectangle;collapsible=0;dropTarget=0;pointerEvents=0;fillColor=none;top=0;left=0;bottom=1;right=0;points=[[0,0.5],[1,0.5]];portConstraint=eastwest;" parent="m0f9UAqzQDwI2y0ihsJh-36" vertex="1">
                    <mxGeometry y="30" width="120" height="30" as="geometry"/>
                </mxCell>
                <mxCell id="m0f9UAqzQDwI2y0ihsJh-38" value="PK" style="shape=partialRectangle;connectable=0;fillColor=none;top=0;left=0;bottom=0;right=0;fontStyle=1;overflow=hidden;" parent="m0f9UAqzQDwI2y0ihsJh-37" vertex="1">
                    <mxGeometry width="30" height="30" as="geometry"/>
                </mxCell>
                <mxCell id="m0f9UAqzQDwI2y0ihsJh-39" value="id" style="shape=partialRectangle;connectable=0;fillColor=none;top=0;left=0;bottom=0;right=0;align=left;spacingLeft=6;fontStyle=5;overflow=hidden;" parent="m0f9UAqzQDwI2y0ihsJh-37" vertex="1">
                    <mxGeometry x="30" width="90" height="30" as="geometry"/>
                </mxCell>
                <mxCell id="m0f9UAqzQDwI2y0ihsJh-40" value="" style="shape=partialRectangle;collapsible=0;dropTarget=0;pointerEvents=0;fillColor=none;top=0;left=0;bottom=0;right=0;points=[[0,0.5],[1,0.5]];portConstraint=eastwest;" parent="m0f9UAqzQDwI2y0ihsJh-36" vertex="1">
                    <mxGeometry y="60" width="120" height="20" as="geometry"/>
                </mxCell>
                <mxCell id="m0f9UAqzQDwI2y0ihsJh-41" value="FK" style="shape=partialRectangle;connectable=0;fillColor=none;top=0;left=0;bottom=0;right=0;editable=1;overflow=hidden;fontStyle=1" parent="m0f9UAqzQDwI2y0ihsJh-40" vertex="1">
                    <mxGeometry width="30" height="20" as="geometry"/>
                </mxCell>
                <mxCell id="m0f9UAqzQDwI2y0ihsJh-42" value="user_id" style="shape=partialRectangle;connectable=0;fillColor=none;top=0;left=0;bottom=0;right=0;align=left;spacingLeft=6;overflow=hidden;" parent="m0f9UAqzQDwI2y0ihsJh-40" vertex="1">
                    <mxGeometry x="30" width="90" height="20" as="geometry"/>
                </mxCell>
                <mxCell id="m0f9UAqzQDwI2y0ihsJh-43" value="" style="shape=partialRectangle;collapsible=0;dropTarget=0;pointerEvents=0;fillColor=none;top=0;left=0;bottom=0;right=0;points=[[0,0.5],[1,0.5]];portConstraint=eastwest;" parent="m0f9UAqzQDwI2y0ihsJh-36" vertex="1">
                    <mxGeometry y="80" width="120" height="20" as="geometry"/>
                </mxCell>
                <mxCell id="m0f9UAqzQDwI2y0ihsJh-44" value="" style="shape=partialRectangle;connectable=0;fillColor=none;top=0;left=0;bottom=0;right=0;editable=1;overflow=hidden;fontStyle=1" parent="m0f9UAqzQDwI2y0ihsJh-43" vertex="1">
                    <mxGeometry width="30" height="20" as="geometry"/>
                </mxCell>
                <mxCell id="m0f9UAqzQDwI2y0ihsJh-45" value="photo" style="shape=partialRectangle;connectable=0;fillColor=none;top=0;left=0;bottom=0;right=0;align=left;spacingLeft=6;overflow=hidden;" parent="m0f9UAqzQDwI2y0ihsJh-43" vertex="1">
                    <mxGeometry x="30" width="90" height="20" as="geometry"/>
                </mxCell>
                <mxCell id="m0f9UAqzQDwI2y0ihsJh-46" value="" style="shape=partialRectangle;collapsible=0;dropTarget=0;pointerEvents=0;fillColor=none;top=0;left=0;bottom=0;right=0;points=[[0,0.5],[1,0.5]];portConstraint=eastwest;" parent="m0f9UAqzQDwI2y0ihsJh-36" vertex="1">
                    <mxGeometry y="100" width="120" height="20" as="geometry"/>
                </mxCell>
                <mxCell id="m0f9UAqzQDwI2y0ihsJh-47" value="" style="shape=partialRectangle;connectable=0;fillColor=none;top=0;left=0;bottom=0;right=0;editable=1;overflow=hidden;" parent="m0f9UAqzQDwI2y0ihsJh-46" vertex="1">
                    <mxGeometry width="30" height="20" as="geometry"/>
                </mxCell>
                <mxCell id="m0f9UAqzQDwI2y0ihsJh-48" value="contri_id" style="shape=partialRectangle;connectable=0;fillColor=none;top=0;left=0;bottom=0;right=0;align=left;spacingLeft=6;overflow=hidden;" parent="m0f9UAqzQDwI2y0ihsJh-46" vertex="1">
                    <mxGeometry x="30" width="90" height="20" as="geometry"/>
                </mxCell>
                <mxCell id="m0f9UAqzQDwI2y0ihsJh-49" value="" style="shape=partialRectangle;collapsible=0;dropTarget=0;pointerEvents=0;fillColor=none;top=0;left=0;bottom=0;right=0;points=[[0,0.5],[1,0.5]];portConstraint=eastwest;" parent="m0f9UAqzQDwI2y0ihsJh-36" vertex="1">
                    <mxGeometry y="120" width="120" height="20" as="geometry"/>
                </mxCell>
                <mxCell id="m0f9UAqzQDwI2y0ihsJh-50" value="" style="shape=partialRectangle;connectable=0;fillColor=none;top=0;left=0;bottom=0;right=0;editable=1;overflow=hidden;fontStyle=1" parent="m0f9UAqzQDwI2y0ihsJh-49" vertex="1">
                    <mxGeometry width="30" height="20" as="geometry"/>
                </mxCell>
                <mxCell id="m0f9UAqzQDwI2y0ihsJh-51" value="amount" style="shape=partialRectangle;connectable=0;fillColor=none;top=0;left=0;bottom=0;right=0;align=left;spacingLeft=6;overflow=hidden;" parent="m0f9UAqzQDwI2y0ihsJh-49" vertex="1">
                    <mxGeometry x="30" width="90" height="20" as="geometry"/>
                </mxCell>
                <mxCell id="m0f9UAqzQDwI2y0ihsJh-52" value="" style="shape=partialRectangle;collapsible=0;dropTarget=0;pointerEvents=0;fillColor=none;top=0;left=0;bottom=0;right=0;points=[[0,0.5],[1,0.5]];portConstraint=eastwest;" parent="m0f9UAqzQDwI2y0ihsJh-36" vertex="1">
                    <mxGeometry y="140" width="120" height="20" as="geometry"/>
                </mxCell>
                <mxCell id="m0f9UAqzQDwI2y0ihsJh-53" value="" style="shape=partialRectangle;connectable=0;fillColor=none;top=0;left=0;bottom=0;right=0;editable=1;overflow=hidden;fontStyle=1" parent="m0f9UAqzQDwI2y0ihsJh-52" vertex="1">
                    <mxGeometry width="30" height="20" as="geometry"/>
                </mxCell>
                <mxCell id="m0f9UAqzQDwI2y0ihsJh-54" value="added_by" style="shape=partialRectangle;connectable=0;fillColor=none;top=0;left=0;bottom=0;right=0;align=left;spacingLeft=6;overflow=hidden;" parent="m0f9UAqzQDwI2y0ihsJh-52" vertex="1">
                    <mxGeometry x="30" width="90" height="20" as="geometry"/>
                </mxCell>
                <mxCell id="m0f9UAqzQDwI2y0ihsJh-64" value="" style="shape=partialRectangle;collapsible=0;dropTarget=0;pointerEvents=0;fillColor=none;top=0;left=0;bottom=0;right=0;points=[[0,0.5],[1,0.5]];portConstraint=eastwest;" parent="m0f9UAqzQDwI2y0ihsJh-36" vertex="1">
                    <mxGeometry y="160" width="120" height="20" as="geometry"/>
                </mxCell>
                <mxCell id="m0f9UAqzQDwI2y0ihsJh-65" value="" style="shape=partialRectangle;connectable=0;fillColor=none;top=0;left=0;bottom=0;right=0;editable=1;overflow=hidden;fontStyle=1" parent="m0f9UAqzQDwI2y0ihsJh-64" vertex="1">
                    <mxGeometry width="30" height="20" as="geometry"/>
                </mxCell>
                <mxCell id="m0f9UAqzQDwI2y0ihsJh-66" value="is_approved" style="shape=partialRectangle;connectable=0;fillColor=none;top=0;left=0;bottom=0;right=0;align=left;spacingLeft=6;overflow=hidden;" parent="m0f9UAqzQDwI2y0ihsJh-64" vertex="1">
                    <mxGeometry x="30" width="90" height="20" as="geometry"/>
                </mxCell>
                <mxCell id="m0f9UAqzQDwI2y0ihsJh-55" value="" style="shape=partialRectangle;collapsible=0;dropTarget=0;pointerEvents=0;fillColor=none;top=0;left=0;bottom=0;right=0;points=[[0,0.5],[1,0.5]];portConstraint=eastwest;" parent="m0f9UAqzQDwI2y0ihsJh-36" vertex="1">
                    <mxGeometry y="180" width="120" height="20" as="geometry"/>
                </mxCell>
                <mxCell id="m0f9UAqzQDwI2y0ihsJh-56" value="" style="shape=partialRectangle;connectable=0;fillColor=none;top=0;left=0;bottom=0;right=0;editable=1;overflow=hidden;" parent="m0f9UAqzQDwI2y0ihsJh-55" vertex="1">
                    <mxGeometry width="30" height="20" as="geometry"/>
                </mxCell>
                <mxCell id="m0f9UAqzQDwI2y0ihsJh-57" value="created_at" style="shape=partialRectangle;connectable=0;fillColor=none;top=0;left=0;bottom=0;right=0;align=left;spacingLeft=6;overflow=hidden;" parent="m0f9UAqzQDwI2y0ihsJh-55" vertex="1">
                    <mxGeometry x="30" width="90" height="20" as="geometry"/>
                </mxCell>
                <mxCell id="m0f9UAqzQDwI2y0ihsJh-58" value="" style="shape=partialRectangle;collapsible=0;dropTarget=0;pointerEvents=0;fillColor=none;top=0;left=0;bottom=0;right=0;points=[[0,0.5],[1,0.5]];portConstraint=eastwest;" parent="m0f9UAqzQDwI2y0ihsJh-36" vertex="1">
                    <mxGeometry y="200" width="120" height="20" as="geometry"/>
                </mxCell>
                <mxCell id="m0f9UAqzQDwI2y0ihsJh-59" value="" style="shape=partialRectangle;connectable=0;fillColor=none;top=0;left=0;bottom=0;right=0;editable=1;overflow=hidden;" parent="m0f9UAqzQDwI2y0ihsJh-58" vertex="1">
                    <mxGeometry width="30" height="20" as="geometry"/>
                </mxCell>
                <mxCell id="m0f9UAqzQDwI2y0ihsJh-60" value="updated_at" style="shape=partialRectangle;connectable=0;fillColor=none;top=0;left=0;bottom=0;right=0;align=left;spacingLeft=6;overflow=hidden;" parent="m0f9UAqzQDwI2y0ihsJh-58" vertex="1">
                    <mxGeometry x="30" width="90" height="20" as="geometry"/>
                </mxCell>
                <mxCell id="m0f9UAqzQDwI2y0ihsJh-61" value="" style="shape=partialRectangle;collapsible=0;dropTarget=0;pointerEvents=0;fillColor=none;top=0;left=0;bottom=0;right=0;points=[[0,0.5],[1,0.5]];portConstraint=eastwest;" parent="m0f9UAqzQDwI2y0ihsJh-36" vertex="1">
                    <mxGeometry y="220" width="120" height="20" as="geometry"/>
                </mxCell>
                <mxCell id="m0f9UAqzQDwI2y0ihsJh-62" value="" style="shape=partialRectangle;connectable=0;fillColor=none;top=0;left=0;bottom=0;right=0;editable=1;overflow=hidden;" parent="m0f9UAqzQDwI2y0ihsJh-61" vertex="1">
                    <mxGeometry width="30" height="20" as="geometry"/>
                </mxCell>
                <mxCell id="m0f9UAqzQDwI2y0ihsJh-63" value="deleted_at" style="shape=partialRectangle;connectable=0;fillColor=none;top=0;left=0;bottom=0;right=0;align=left;spacingLeft=6;overflow=hidden;" parent="m0f9UAqzQDwI2y0ihsJh-61" vertex="1">
                    <mxGeometry x="30" width="90" height="20" as="geometry"/>
                </mxCell>
                <mxCell id="m0f9UAqzQDwI2y0ihsJh-68" value="" style="shape=partialRectangle;connectable=0;fillColor=none;top=0;left=0;bottom=0;right=0;editable=1;overflow=hidden;fontStyle=1" parent="TchkiXIJ95gt_sCCpnTl-1" vertex="1">
                    <mxGeometry x="170" y="130" width="30" height="20" as="geometry"/>
                </mxCell>
                <mxCell id="m0f9UAqzQDwI2y0ihsJh-82" value="contributions" style="shape=table;startSize=30;container=1;collapsible=1;childLayout=tableLayout;fixedRows=1;rowLines=0;fontStyle=1;align=center;resizeLast=1;" parent="TchkiXIJ95gt_sCCpnTl-1" vertex="1">
                    <mxGeometry x="30" y="214" width="120" height="180" as="geometry"/>
                </mxCell>
                <mxCell id="m0f9UAqzQDwI2y0ihsJh-83" value="" style="shape=partialRectangle;collapsible=0;dropTarget=0;pointerEvents=0;fillColor=none;top=0;left=0;bottom=1;right=0;points=[[0,0.5],[1,0.5]];portConstraint=eastwest;" parent="m0f9UAqzQDwI2y0ihsJh-82" vertex="1">
                    <mxGeometry y="30" width="120" height="30" as="geometry"/>
                </mxCell>
                <mxCell id="m0f9UAqzQDwI2y0ihsJh-84" value="PK" style="shape=partialRectangle;connectable=0;fillColor=none;top=0;left=0;bottom=0;right=0;fontStyle=1;overflow=hidden;" parent="m0f9UAqzQDwI2y0ihsJh-83" vertex="1">
                    <mxGeometry width="30" height="30" as="geometry"/>
                </mxCell>
                <mxCell id="m0f9UAqzQDwI2y0ihsJh-85" value="id" style="shape=partialRectangle;connectable=0;fillColor=none;top=0;left=0;bottom=0;right=0;align=left;spacingLeft=6;fontStyle=5;overflow=hidden;" parent="m0f9UAqzQDwI2y0ihsJh-83" vertex="1">
                    <mxGeometry x="30" width="90" height="30" as="geometry"/>
                </mxCell>
                <mxCell id="m0f9UAqzQDwI2y0ihsJh-86" value="" style="shape=partialRectangle;collapsible=0;dropTarget=0;pointerEvents=0;fillColor=none;top=0;left=0;bottom=0;right=0;points=[[0,0.5],[1,0.5]];portConstraint=eastwest;" parent="m0f9UAqzQDwI2y0ihsJh-82" vertex="1">
                    <mxGeometry y="60" width="120" height="20" as="geometry"/>
                </mxCell>
                <mxCell id="m0f9UAqzQDwI2y0ihsJh-87" value="" style="shape=partialRectangle;connectable=0;fillColor=none;top=0;left=0;bottom=0;right=0;editable=1;overflow=hidden;" parent="m0f9UAqzQDwI2y0ihsJh-86" vertex="1">
                    <mxGeometry width="30" height="20" as="geometry"/>
                </mxCell>
                <mxCell id="m0f9UAqzQDwI2y0ihsJh-88" value="name" style="shape=partialRectangle;connectable=0;fillColor=none;top=0;left=0;bottom=0;right=0;align=left;spacingLeft=6;overflow=hidden;" parent="m0f9UAqzQDwI2y0ihsJh-86" vertex="1">
                    <mxGeometry x="30" width="90" height="20" as="geometry"/>
                </mxCell>
                <mxCell id="m0f9UAqzQDwI2y0ihsJh-89" value="" style="shape=partialRectangle;collapsible=0;dropTarget=0;pointerEvents=0;fillColor=none;top=0;left=0;bottom=0;right=0;points=[[0,0.5],[1,0.5]];portConstraint=eastwest;" parent="m0f9UAqzQDwI2y0ihsJh-82" vertex="1">
                    <mxGeometry y="80" width="120" height="20" as="geometry"/>
                </mxCell>
                <mxCell id="m0f9UAqzQDwI2y0ihsJh-90" value="" style="shape=partialRectangle;connectable=0;fillColor=none;top=0;left=0;bottom=0;right=0;editable=1;overflow=hidden;fontStyle=1" parent="m0f9UAqzQDwI2y0ihsJh-89" vertex="1">
                    <mxGeometry width="30" height="20" as="geometry"/>
                </mxCell>
                <mxCell id="m0f9UAqzQDwI2y0ihsJh-91" value="cost" style="shape=partialRectangle;connectable=0;fillColor=none;top=0;left=0;bottom=0;right=0;align=left;spacingLeft=6;overflow=hidden;" parent="m0f9UAqzQDwI2y0ihsJh-89" vertex="1">
                    <mxGeometry x="30" width="90" height="20" as="geometry"/>
                </mxCell>
                <mxCell id="m0f9UAqzQDwI2y0ihsJh-92" value="" style="shape=partialRectangle;collapsible=0;dropTarget=0;pointerEvents=0;fillColor=none;top=0;left=0;bottom=0;right=0;points=[[0,0.5],[1,0.5]];portConstraint=eastwest;" parent="m0f9UAqzQDwI2y0ihsJh-82" vertex="1">
                    <mxGeometry y="100" width="120" height="20" as="geometry"/>
                </mxCell>
                <mxCell id="m0f9UAqzQDwI2y0ihsJh-93" value="FK" style="shape=partialRectangle;connectable=0;fillColor=none;top=0;left=0;bottom=0;right=0;editable=1;overflow=hidden;fontStyle=1" parent="m0f9UAqzQDwI2y0ihsJh-92" vertex="1">
                    <mxGeometry width="30" height="20" as="geometry"/>
                </mxCell>
                <mxCell id="m0f9UAqzQDwI2y0ihsJh-94" value="created_by" style="shape=partialRectangle;connectable=0;fillColor=none;top=0;left=0;bottom=0;right=0;align=left;spacingLeft=6;overflow=hidden;" parent="m0f9UAqzQDwI2y0ihsJh-92" vertex="1">
                    <mxGeometry x="30" width="90" height="20" as="geometry"/>
                </mxCell>
                <mxCell id="m0f9UAqzQDwI2y0ihsJh-101" value="" style="shape=partialRectangle;collapsible=0;dropTarget=0;pointerEvents=0;fillColor=none;top=0;left=0;bottom=0;right=0;points=[[0,0.5],[1,0.5]];portConstraint=eastwest;" parent="m0f9UAqzQDwI2y0ihsJh-82" vertex="1">
                    <mxGeometry y="120" width="120" height="20" as="geometry"/>
                </mxCell>
                <mxCell id="m0f9UAqzQDwI2y0ihsJh-102" value="" style="shape=partialRectangle;connectable=0;fillColor=none;top=0;left=0;bottom=0;right=0;editable=1;overflow=hidden;" parent="m0f9UAqzQDwI2y0ihsJh-101" vertex="1">
                    <mxGeometry width="30" height="20" as="geometry"/>
                </mxCell>
                <mxCell id="m0f9UAqzQDwI2y0ihsJh-103" value="created_at" style="shape=partialRectangle;connectable=0;fillColor=none;top=0;left=0;bottom=0;right=0;align=left;spacingLeft=6;overflow=hidden;" parent="m0f9UAqzQDwI2y0ihsJh-101" vertex="1">
                    <mxGeometry x="30" width="90" height="20" as="geometry"/>
                </mxCell>
                <mxCell id="m0f9UAqzQDwI2y0ihsJh-104" value="" style="shape=partialRectangle;collapsible=0;dropTarget=0;pointerEvents=0;fillColor=none;top=0;left=0;bottom=0;right=0;points=[[0,0.5],[1,0.5]];portConstraint=eastwest;" parent="m0f9UAqzQDwI2y0ihsJh-82" vertex="1">
                    <mxGeometry y="140" width="120" height="20" as="geometry"/>
                </mxCell>
                <mxCell id="m0f9UAqzQDwI2y0ihsJh-105" value="" style="shape=partialRectangle;connectable=0;fillColor=none;top=0;left=0;bottom=0;right=0;editable=1;overflow=hidden;" parent="m0f9UAqzQDwI2y0ihsJh-104" vertex="1">
                    <mxGeometry width="30" height="20" as="geometry"/>
                </mxCell>
                <mxCell id="m0f9UAqzQDwI2y0ihsJh-106" value="updated_at" style="shape=partialRectangle;connectable=0;fillColor=none;top=0;left=0;bottom=0;right=0;align=left;spacingLeft=6;overflow=hidden;" parent="m0f9UAqzQDwI2y0ihsJh-104" vertex="1">
                    <mxGeometry x="30" width="90" height="20" as="geometry"/>
                </mxCell>
                <mxCell id="m0f9UAqzQDwI2y0ihsJh-107" value="" style="shape=partialRectangle;collapsible=0;dropTarget=0;pointerEvents=0;fillColor=none;top=0;left=0;bottom=0;right=0;points=[[0,0.5],[1,0.5]];portConstraint=eastwest;" parent="m0f9UAqzQDwI2y0ihsJh-82" vertex="1">
                    <mxGeometry y="160" width="120" height="20" as="geometry"/>
                </mxCell>
                <mxCell id="m0f9UAqzQDwI2y0ihsJh-108" value="" style="shape=partialRectangle;connectable=0;fillColor=none;top=0;left=0;bottom=0;right=0;editable=1;overflow=hidden;" parent="m0f9UAqzQDwI2y0ihsJh-107" vertex="1">
                    <mxGeometry width="30" height="20" as="geometry"/>
                </mxCell>
                <mxCell id="m0f9UAqzQDwI2y0ihsJh-109" value="deleted_at" style="shape=partialRectangle;connectable=0;fillColor=none;top=0;left=0;bottom=0;right=0;align=left;spacingLeft=6;overflow=hidden;" parent="m0f9UAqzQDwI2y0ihsJh-107" vertex="1">
                    <mxGeometry x="30" width="90" height="20" as="geometry"/>
                </mxCell>
                <mxCell id="m0f9UAqzQDwI2y0ihsJh-111" value="" style="edgeStyle=entityRelationEdgeStyle;fontSize=12;html=1;endArrow=ERoneToMany;exitX=0.321;exitY=0.003;exitDx=0;exitDy=0;exitPerimeter=0;" parent="TchkiXIJ95gt_sCCpnTl-1" source="OusGNvMnw1ku1Nts1Jbt-0" target="m0f9UAqzQDwI2y0ihsJh-92" edge="1">
                    <mxGeometry width="100" height="100" relative="1" as="geometry">
                        <mxPoint x="90" y="380" as="sourcePoint"/>
                        <mxPoint x="190" y="280" as="targetPoint"/>
                    </mxGeometry>
                </mxCell>
                <mxCell id="m0f9UAqzQDwI2y0ihsJh-112" value="" style="edgeStyle=entityRelationEdgeStyle;fontSize=12;html=1;endArrow=ERmany;startArrow=ERmany;entryX=0;entryY=0.5;entryDx=0;entryDy=0;" parent="TchkiXIJ95gt_sCCpnTl-1" source="m0f9UAqzQDwI2y0ihsJh-40" target="OusGNvMnw1ku1Nts1Jbt-1" edge="1">
                    <mxGeometry width="100" height="100" relative="1" as="geometry">
                        <mxPoint x="340" y="260" as="sourcePoint"/>
                        <mxPoint x="440" y="160" as="targetPoint"/>
                    </mxGeometry>
                </mxCell>
            </root>
        </mxGraphModel>
    </diagram>
</mxfile>